<svg width="18" height="18" viewBox="0 0 18 18" fill="none" xmlns="http://www.w3.org/2000/svg">
<path d="M16.165 3C16.0968 2.99298 16.0282 2.99298 15.96 3H1.96C1.87027 3.00138 1.78114 3.01484 1.695 3.04L8.92 10.235L16.165 3Z" fill="#ffffff"/>
<path d="M16.905 3.695L9.625 10.945C9.43764 11.1313 9.18419 11.2358 8.92 11.2358C8.65581 11.2358 8.40236 11.1313 8.215 10.945L1 3.75C0.97782 3.83152 0.966059 3.91552 0.965 4V14C0.965 14.2652 1.07036 14.5196 1.25789 14.7071C1.44543 14.8946 1.69978 15 1.965 15H15.965C16.2302 15 16.4846 14.8946 16.6721 14.7071C16.8596 14.5196 16.965 14.2652 16.965 14V4C16.961 3.89583 16.9408 3.79292 16.905 3.695ZM2.65 14H1.955V13.285L5.59 9.68L6.295 10.385L2.65 14ZM15.955 14H15.255L11.61 10.385L12.315 9.68L15.95 13.285L15.955 14Z" fill="#ffffffff"/>
</svg>
