<svg width="24" height="24" viewBox="0 0 24 24" fill="none" xmlns="http://www.w3.org/2000/svg">
<path d="M3.41045 4.638V13.5588C3.41045 18.4152 7.25645 22.3512 12 22.3512C16.7436 22.3512 20.5896 18.4152 20.5896 13.5588V4.6428L11.9484 1.7352L3.41045 4.638ZM11.946 0L22.2 3.4488V13.5588C22.2 19.3248 17.6328 24 12 24C6.36725 24 1.80005 19.3248 1.80005 13.5588V3.4488L11.946 0ZM17.2488 7.782C17.1705 7.71005 17.0785 7.65461 16.9783 7.61899C16.8781 7.58337 16.7717 7.56831 16.6655 7.57469C16.5594 7.58108 16.4556 7.60878 16.3603 7.65615C16.2651 7.70352 16.1804 7.76958 16.1112 7.8504L10.932 13.8132L7.58645 10.1112C7.51571 10.032 7.42976 9.96775 7.3337 9.9224C7.23765 9.87706 7.13345 9.85149 7.02732 9.84724C6.92118 9.84299 6.81527 9.86013 6.71589 9.89764C6.61651 9.93515 6.5257 9.99227 6.44885 10.0656C6.29206 10.2163 6.19982 10.4219 6.19154 10.6392C6.18326 10.8566 6.25958 11.0686 6.40445 11.2308L10.3524 15.5988C10.4276 15.6833 10.5201 15.7508 10.6235 15.7966C10.727 15.8424 10.839 15.8655 10.9522 15.8644C11.0653 15.8632 11.1769 15.8379 11.2794 15.79C11.3819 15.7421 11.473 15.6728 11.5464 15.5868L17.3148 8.946C17.4566 8.78116 17.529 8.56777 17.5167 8.35069C17.5044 8.13361 17.4084 7.92976 17.2488 7.782Z" fill="#002B7F"/>
</svg>
