<svg width="25" height="24" viewBox="0 0 25 24" fill="none" xmlns="http://www.w3.org/2000/svg">
<path d="M24.0481 12.0001C24.0481 18.0607 19.557 23.0711 13.7226 23.8842C13.1771 23.9599 12.6189 23.9994 12.0524 23.9994C11.3984 23.9994 10.7562 23.9473 10.1309 23.8464C4.41919 22.9265 0.0566406 17.9724 0.0566406 12.0001C0.0566406 5.37281 5.42787 0 12.0532 0C18.6786 0 24.0498 5.37281 24.0498 12.0001H24.0481Z" fill="white"/>
<path d="M13.7227 9.63602V12.2501H16.9555L16.4436 15.7715H13.7227V23.8845C13.1771 23.9602 12.619 23.9997 12.0524 23.9997C11.3985 23.9997 10.7563 23.9476 10.1309 23.8467V15.7715H7.14941V12.2501H10.1309V9.05166C10.1309 7.06733 11.7389 5.45801 13.7235 5.45801V5.45969C13.7294 5.45969 13.7344 5.45801 13.7403 5.45801H16.9563V8.50345H14.8549C14.2304 8.50345 13.7235 9.01046 13.7235 9.63519L13.7227 9.63602Z" fill="#000754"/>
</svg>
