<svg width="25" height="24" viewBox="0 0 25 24" fill="none" xmlns="http://www.w3.org/2000/svg">
<path d="M12.0733 0H12.0187C5.40844 0 0.0498047 5.36022 0.0498047 11.9724V12.027C0.0498047 18.6392 5.40844 23.9994 12.0187 23.9994H12.0733C18.6835 23.9994 24.0421 18.6392 24.0421 12.027V11.9724C24.0421 5.36022 18.6835 0 12.0733 0Z" fill="white"/>
<path d="M15.7586 4.88281H8.33475C6.28376 4.88281 4.61523 6.55183 4.61523 8.60342V15.3972C4.61523 17.4488 6.28376 19.1178 8.33475 19.1178H15.7586C17.8096 19.1178 19.4782 17.4488 19.4782 15.3972V8.60342C19.4782 6.55183 17.8096 4.88281 15.7586 4.88281ZM5.92736 8.60342C5.92736 7.27577 7.00749 6.19532 8.33475 6.19532H15.7586C17.0859 6.19532 18.166 7.27577 18.166 8.60342V15.3972C18.166 16.7249 17.0859 17.8053 15.7586 17.8053H8.33475C7.00749 17.8053 5.92736 16.7249 5.92736 15.3972V8.60342Z" fill="#000754"/>
<path d="M12.0467 15.4607C13.9539 15.4607 15.5065 13.9085 15.5065 11.9999C15.5065 10.0912 13.9548 8.53906 12.0467 8.53906C10.1386 8.53906 8.58691 10.0912 8.58691 11.9999C8.58691 13.9085 10.1386 15.4607 12.0467 15.4607ZM12.0467 9.85242C13.2311 9.85242 14.1943 10.816 14.1943 12.0007C14.1943 13.1854 13.2311 14.149 12.0467 14.149C10.8623 14.149 9.89904 13.1854 9.89904 12.0007C9.89904 10.816 10.8623 9.85242 12.0467 9.85242Z" fill="#000754"/>
<path d="M15.8265 9.09702C16.34 9.09702 16.7586 8.6792 16.7586 8.16472C16.7586 7.65023 16.3409 7.23242 15.8265 7.23242C15.3122 7.23242 14.8945 7.65023 14.8945 8.16472C14.8945 8.6792 15.3122 9.09702 15.8265 9.09702Z" fill="#000754"/>
</svg>
