<svg width="25" height="24" viewBox="0 0 25 24" fill="none" xmlns="http://www.w3.org/2000/svg">
<path d="M12.0655 0H12.0108C5.40063 0 0.0419922 5.36022 0.0419922 11.9724V12.027C0.0419922 18.6392 5.40063 23.9994 12.0108 23.9994H12.0655C18.6757 23.9994 24.0343 18.6392 24.0343 12.027V11.9724C24.0343 5.36022 18.6757 0 12.0655 0Z" fill="white"/>
<path d="M17.8374 8.68236V10.9484C17.4415 10.9097 16.927 10.8197 16.358 10.6112C15.6149 10.3388 15.0618 9.96628 14.6995 9.67788V14.2578L14.6903 14.2435C14.6962 14.3343 14.6995 14.4268 14.6995 14.5201C14.6995 16.7945 12.8494 18.646 10.5749 18.646C8.30029 18.646 6.4502 16.7945 6.4502 14.5201C6.4502 12.2457 8.30029 10.3934 10.5749 10.3934C10.7976 10.3934 11.0162 10.4111 11.2297 10.4455V12.6788C11.0246 12.6056 10.8043 12.5661 10.5749 12.5661C9.4981 12.5661 8.62138 13.4422 8.62138 14.5201C8.62138 15.5981 9.4981 16.4742 10.5749 16.4742C11.6516 16.4742 12.5283 15.5972 12.5283 14.5201C12.5283 14.4798 12.5275 14.4394 12.525 14.3991V5.49902H14.7886C14.797 5.69073 14.8046 5.88412 14.813 6.07583C14.8281 6.45335 14.9626 6.81574 15.1971 7.11255C15.472 7.46149 15.878 7.86676 16.4479 8.19048C16.9817 8.49233 17.4827 8.62265 17.8374 8.68403V8.68236Z" fill="#000754"/>
</svg>
