<svg width="25" height="24" viewBox="0 0 25 24" fill="none" xmlns="http://www.w3.org/2000/svg">
<path d="M12.0508 0H11.9962C5.38598 0 0.0273438 5.36022 0.0273438 11.9724V12.027C0.0273438 18.6392 5.38598 23.9994 11.9962 23.9994H12.0508C18.6611 23.9994 24.0197 18.6392 24.0197 12.027V11.9724C24.0197 5.36022 18.6611 0 12.0508 0Z" fill="white"/>
<path d="M14.3616 15.5093C11.291 15.5093 8.79283 13.0096 8.79199 9.9381C8.79283 9.1595 9.42662 8.52637 10.2033 8.52637C10.2832 8.52637 10.3622 8.53309 10.4378 8.54655C10.6043 8.57429 10.7623 8.63063 10.9077 8.71555C10.9287 8.72816 10.943 8.74835 10.9464 8.77189L11.2708 10.8176C11.275 10.8411 11.2675 10.8655 11.2515 10.8832C11.0725 11.0816 10.8438 11.2245 10.5891 11.296L10.4664 11.3305L10.5126 11.449C10.9312 12.5152 11.7836 13.3669 12.8503 13.7874L12.9688 13.8344L13.0032 13.7117C13.0747 13.4569 13.2176 13.2282 13.416 13.0491C13.4302 13.0357 13.4496 13.0289 13.4689 13.0289C13.4731 13.0289 13.4773 13.0289 13.4824 13.0298L15.5275 13.3543C15.5518 13.3585 15.572 13.372 15.5846 13.393C15.6687 13.5385 15.725 13.6974 15.7536 13.8639C15.767 13.9379 15.7729 14.0161 15.7729 14.0976C15.7729 14.8754 15.14 15.5085 14.3616 15.5093Z" fill="#000754"/>
<path d="M19.8063 11.3257C19.6407 9.45408 18.7833 7.71779 17.3922 6.43723C15.9926 5.1491 14.177 4.43945 12.2782 4.43945C8.11063 4.43945 4.71979 7.8313 4.71979 12.0001C4.71979 13.3992 5.1056 14.7622 5.83605 15.9494L4.20703 19.5565L9.42276 19.0007C10.3297 19.3723 11.2897 19.5607 12.2773 19.5607C12.5371 19.5607 12.8035 19.5472 13.0708 19.5195C13.3062 19.4943 13.5441 19.4573 13.7778 19.4102C17.2678 18.7047 19.8155 15.6063 19.8357 12.0404V12.0001C19.8357 11.773 19.8256 11.546 19.8055 11.3266L19.8063 11.3257ZM9.62366 17.4174L6.73799 17.7252L7.59957 15.8157L7.42725 15.5845C7.41464 15.5676 7.40204 15.5508 7.38775 15.5315C6.63964 14.4981 6.24457 13.2773 6.24457 12.0009C6.24457 8.67296 8.9512 5.96554 12.2782 5.96554C15.395 5.96554 18.0369 8.39801 18.2916 11.5031C18.305 11.6696 18.3126 11.837 18.3126 12.0018C18.3126 12.0488 18.3118 12.0951 18.3109 12.1447C18.247 14.9286 16.3028 17.293 13.5827 17.895C13.3751 17.9413 13.1624 17.9766 12.9506 17.9993C12.7304 18.0245 12.5043 18.0371 12.2799 18.0371C11.4805 18.0371 10.7038 17.8824 9.96997 17.5764C9.88844 17.5436 9.80858 17.5083 9.73377 17.4721L9.6245 17.4191L9.62366 17.4174Z" fill="#000754"/>
</svg>
