<svg width="24" height="24" viewBox="0 0 24 24" fill="none" xmlns="http://www.w3.org/2000/svg">
<path d="M23.9438 11.9998C23.9438 5.39138 18.5882 0.0341797 11.9817 0.0341797C5.37516 0.0341797 0.0195312 5.39138 0.0195312 11.9998C0.0195312 18.6083 5.37516 23.9655 11.9817 23.9655C18.5882 23.9655 23.9438 18.6083 23.9438 11.9998Z" fill="white"/>
<path d="M19.5144 9.51983C19.4203 8.6109 19.2177 7.60613 18.4721 7.0781C17.8947 6.66862 17.1356 6.65348 16.427 6.65433C14.9291 6.65433 13.4304 6.65685 11.9325 6.65769C10.4918 6.65937 9.05105 6.66021 7.61031 6.66189C7.00847 6.66189 6.42343 6.61565 5.86445 6.8763C5.38449 7.09996 5.00875 7.52541 4.78264 7.99879C4.46911 8.65715 4.40355 9.40296 4.36572 10.1311C4.29595 11.4571 4.30352 12.7864 4.38674 14.1115C4.4481 15.0785 4.6036 16.1471 5.35087 16.7635C6.01323 17.3091 6.94794 17.3361 7.807 17.3369C10.5338 17.3394 13.2615 17.3419 15.9891 17.3436C16.3388 17.3445 16.7036 17.3377 17.06 17.2991C17.761 17.2234 18.4293 17.0224 18.8798 16.5028C19.3346 15.979 19.4514 15.25 19.5203 14.5597C19.6884 12.8848 19.6868 11.1939 19.5144 9.51983ZM10.3556 14.347V9.65099L14.4206 11.9986L10.3556 14.347Z" fill="#000754"/>
</svg>
