<svg width="24" height="24" viewBox="0 0 24 24" fill="none" xmlns="http://www.w3.org/2000/svg">
<path d="M17.2187 2C18.0406 3.14678 19.1687 4.05962 20.4833 4.61913L19.1484 8.17965C19.1484 8.17965 21.0685 10.5842 21.1787 11.5654C21.239 12.104 20.5091 13.6175 20.496 13.6445C19.0447 16.8901 15.8061 19.1501 12.0439 19.1503V18.4833C15.5315 18.4831 18.5387 16.3894 19.8876 13.373L19.8915 13.3632L19.8954 13.3544L19.8964 13.3535L19.8974 13.3515C19.8985 13.3491 19.8999 13.3448 19.9023 13.3398C19.9071 13.3296 19.9154 13.3148 19.9247 13.2949C19.9437 13.2545 19.971 13.1948 20.0038 13.122C20.0697 12.976 20.1561 12.7773 20.2402 12.5644C20.3251 12.3492 20.4027 12.13 20.455 11.9414C20.5138 11.7294 20.5163 11.6393 20.5165 11.6396C20.5045 11.5324 20.4209 11.2963 20.2285 10.9384C20.0486 10.6041 19.8126 10.2332 19.5722 9.88082C19.3332 9.53038 19.0964 9.20782 18.9189 8.97262C18.8303 8.85526 18.7569 8.75966 18.706 8.6943C18.6807 8.6618 18.6607 8.63689 18.6474 8.62008C18.6408 8.61169 18.635 8.60562 18.6318 8.60153C18.6302 8.59953 18.6296 8.59757 18.6288 8.59664L18.6279 8.59567L18.3915 8.29977L19.6435 4.95897C18.6161 4.42552 17.7131 3.68682 16.9892 2.79687C15.4425 3.34772 13.7778 3.64837 12.0439 3.64843C10.3091 3.64843 8.643 3.3472 7.0956 2.79589C6.37154 3.68595 5.46971 4.42554 4.44227 4.95897L5.69422 8.29879L5.45985 8.59469L5.45497 8.59957C5.45173 8.60368 5.44689 8.61074 5.44032 8.6191C5.42713 8.6359 5.40774 8.66102 5.3827 8.69332C5.332 8.75875 5.25805 8.85419 5.16981 8.97164C4.99302 9.20697 4.75697 9.52921 4.51844 9.87984C4.27854 10.2325 4.04282 10.6044 3.86219 10.9394C3.66913 11.2975 3.58267 11.5361 3.56922 11.6464V11.665C3.56936 11.677 3.56979 11.6936 3.57215 11.7148C3.577 11.7583 3.58726 11.8142 3.60437 11.8828C3.63907 12.0216 3.69552 12.1847 3.76648 12.3642C3.83694 12.5424 3.91632 12.7225 3.99402 12.8974C4.06813 13.0642 4.14672 13.2394 4.20301 13.3828L4.27723 13.5458C4.3096 13.6126 4.34751 13.6889 4.3866 13.7656L4.38758 13.7665C5.81512 16.5704 8.70988 18.4833 12.0439 18.4833V19.1503L11.7079 19.1444C8.25367 19.0206 5.28076 16.9911 3.79285 14.0683C3.75585 13.9958 3.71439 13.9138 3.67664 13.8359L3.58289 13.6279C3.39727 13.1545 2.9082 12.229 2.90222 11.6718L2.90808 11.5654C3.02768 10.5885 4.92412 8.19637 4.93739 8.17965L3.6034 4.61913C4.91772 4.05962 6.04615 3.14679 6.86806 2C8.36993 2.59415 9.99858 2.93795 11.7021 2.97851L12.0439 2.98242C13.8711 2.98236 15.6169 2.63372 17.2187 2Z" fill="#E11E19"/>
<path d="M9.00442 6.3412L8.62743 6.56581L7.8267 6.21225L7.77295 6.43904L8.05434 6.90726L7.7659 7.07913L6.92456 5.6792L7.21301 5.50734L7.55948 6.08383L7.75468 5.1846L8.13357 4.95886L7.90504 5.87794L9.00442 6.3412Z" fill="#000981"/>
<path d="M10.0193 4.29007L9.82299 5.42515L10.0178 6.0074L9.69303 6.11247L9.4982 5.53023L8.63684 4.7373L9.01963 4.61347L9.5681 5.18381L9.65129 4.40913L10.0193 4.29007Z" fill="#000981"/>
<path d="M11.6906 5.367L11.0919 5.42959L11.0175 5.77507L10.6624 5.81219L11.0577 4.12809L11.4414 4.08798L12.2015 5.65127L11.8333 5.68977L11.6906 5.367ZM11.564 5.09715L11.2884 4.47955L11.1516 5.14027L11.564 5.09715Z" fill="#000981"/>
<path d="M13.8929 5.84588L13.5543 5.80168L13.0546 4.56604L12.8926 5.71528L12.5772 5.67409L12.8052 4.05615L13.1602 4.10251L13.6463 5.31624L13.8054 4.18676L14.1209 4.22795L13.8929 5.84588Z" fill="#000981"/>
<path d="M15.1768 5.74821L15.5689 4.67503L15.8906 4.7893L15.5004 5.85726C15.4527 5.98772 15.3923 6.08308 15.3191 6.14334C15.1954 6.24521 15.0336 6.26065 14.8338 6.18967C14.634 6.11869 14.5189 6.01903 14.4888 5.89071C14.4588 5.76169 14.4768 5.60696 14.5427 5.42654L14.5557 5.39115L14.8596 5.4991L14.8466 5.53449C14.8061 5.65415 14.7884 5.74234 14.7936 5.79908C14.7998 5.85537 14.8412 5.89712 14.9178 5.92432C14.9936 5.95128 15.0534 5.94272 15.0971 5.89863C15.1231 5.8726 15.1497 5.82246 15.1768 5.74821Z" fill="#000981"/>
<path d="M16.6273 6.6757L16.111 6.36674L15.8406 6.59613L15.5344 6.41292L16.8784 5.31394L17.2093 5.51195L16.8618 7.20723L16.5442 7.01719L16.6273 6.6757ZM16.691 6.38582L16.8481 5.73092L16.3354 6.17301L16.691 6.38582Z" fill="#000981"/>
<path d="M5.69023 14.1307C5.56697 14.1915 5.46215 14.2205 5.37577 14.2178C5.21757 14.2117 5.09136 14.1141 4.99713 13.925C4.94276 13.8159 4.92579 13.7082 4.94623 13.6017C4.96732 13.495 5.05374 13.4042 5.2055 13.3294L5.30988 13.278L5.4023 13.4634L5.29792 13.5149C5.2184 13.5541 5.16716 13.6012 5.14419 13.6561C5.12222 13.7114 5.12985 13.7764 5.16709 13.8512C5.21947 13.9563 5.28986 14.0072 5.37824 14.004C5.43252 14.002 5.5213 13.9706 5.64456 13.9099L6.61773 13.4302L6.71509 13.6256L5.69023 14.1307Z" fill="#000981"/>
<path d="M6.85276 13.9138L6.08435 14.5632C5.99409 14.6395 5.93336 14.7198 5.90217 14.8042C5.85435 14.9307 5.88075 15.0535 5.98138 15.1725C6.10204 15.3152 6.23287 15.371 6.37387 15.3398C6.45028 15.3226 6.53333 15.2761 6.62303 15.2003L7.39144 14.5509L7.53594 14.7218L6.83778 15.3119C6.68489 15.4411 6.54985 15.5199 6.43266 15.5483C6.21869 15.5996 6.02299 15.5203 5.84558 15.3105C5.66816 15.1006 5.62278 14.8948 5.70942 14.693C5.75697 14.5822 5.8572 14.4622 6.01009 14.333L6.70825 13.7429L6.85276 13.9138Z" fill="#000981"/>
<path d="M7.65881 14.8354L7.84403 15.0011L7.58985 16.4617L8.42884 15.524L8.5778 15.6573L7.54211 16.8147L7.36635 16.6576L7.61115 15.19L6.77287 16.1268L6.62312 15.9929L7.65881 14.8354Z" fill="#000981"/>
<path d="M8.67712 15.6199L8.85609 15.7345L8.01453 17.0401L7.83556 16.9254L8.67712 15.6199Z" fill="#000981"/>
<path d="M9.70011 15.9239C9.96479 16.036 10.1241 16.2037 10.178 16.427C10.2201 16.6013 10.1966 16.7915 10.1074 16.9977C10.0109 17.2207 9.87384 17.3821 9.69626 17.4819C9.4878 17.599 9.26007 17.6053 9.01308 17.5007C8.78242 17.4031 8.63394 17.2504 8.56766 17.0426C8.51331 16.8464 8.53454 16.6363 8.63135 16.4126C8.71877 16.2105 8.84393 16.0589 9.00682 15.9578C9.2159 15.8281 9.44699 15.8168 9.70011 15.9239ZM9.1159 17.3301C9.29485 17.4058 9.45171 17.3968 9.58647 17.303C9.7222 17.2088 9.82601 17.0787 9.89788 16.9126C9.97386 16.737 9.98876 16.576 9.94257 16.4297C9.89707 16.2837 9.79437 16.1768 9.63447 16.1091C9.47933 16.0435 9.32975 16.0431 9.18571 16.1081C9.04196 16.1724 8.92535 16.308 8.83588 16.5148C8.7643 16.6802 8.74571 16.8376 8.78012 16.987C8.8155 17.1359 8.92743 17.2503 9.1159 17.3301Z" fill="#000981"/>
<path d="M10.8423 17.104C10.9435 17.125 11.0279 17.1214 11.0954 17.0931C11.1636 17.065 11.2093 16.9982 11.2324 16.8929C11.2572 16.7795 11.2329 16.6938 11.1595 16.6355C11.1201 16.6047 11.0635 16.5817 10.9897 16.5663L10.4622 16.457L10.343 17.0005L10.8423 17.104ZM10.2869 16.2271L11.0249 16.3801C11.1464 16.4053 11.2428 16.4438 11.3139 16.4955C11.4488 16.5944 11.4962 16.7351 11.4561 16.9177C11.4352 17.013 11.3982 17.0868 11.3451 17.1392C11.2928 17.1917 11.2271 17.2291 11.1481 17.2512C11.2048 17.2893 11.2442 17.3322 11.2663 17.3798C11.2891 17.4275 11.2921 17.498 11.2755 17.5911L11.2363 17.806C11.2252 17.867 11.2203 17.9132 11.2218 17.9445C11.2238 17.9977 11.2398 18.035 11.2699 18.0563L11.2621 18.092L10.9972 18.0371C10.993 18.0219 10.9911 18.003 10.9915 17.9805C10.9919 17.9579 10.9975 17.9153 11.0082 17.8526L11.0534 17.5847C11.0711 17.4797 11.0477 17.402 10.9831 17.3516C10.9461 17.3236 10.8835 17.3004 10.7952 17.2821L10.3036 17.1802L10.1539 17.8622L9.93797 17.8174L10.2869 16.2271Z" fill="#000981"/>
<path d="M12.16 17.5743C12.1732 17.6659 12.2014 17.7389 12.2446 17.7933C12.3269 17.8951 12.4601 17.9387 12.6443 17.9241C12.7268 17.9176 12.8009 17.8999 12.8667 17.871C12.9938 17.8149 13.0523 17.728 13.0421 17.6102C13.0345 17.5219 13.0014 17.4611 12.9429 17.4279C12.8837 17.3956 12.7933 17.3705 12.6716 17.3526L12.4473 17.3203C12.3009 17.2993 12.1961 17.2716 12.1331 17.2373C12.0241 17.1777 11.9637 17.0806 11.9521 16.9458C11.9394 16.8 11.9795 16.6764 12.0724 16.5749C12.1652 16.4735 12.3041 16.4154 12.489 16.4008C12.6592 16.3874 12.8071 16.4172 12.9329 16.4903C13.0593 16.5626 13.1303 16.6889 13.1459 16.8693L12.9393 16.8856C12.9207 16.7996 12.8914 16.7348 12.8513 16.6913C12.7769 16.6119 12.6594 16.5786 12.4988 16.5913C12.3691 16.6015 12.2783 16.6361 12.2263 16.6951C12.1743 16.7541 12.1514 16.8196 12.1577 16.8918C12.1645 16.9713 12.2027 17.0268 12.2722 17.0584C12.3177 17.0785 12.4186 17.1002 12.5749 17.1234L12.8071 17.1574C12.919 17.1737 13.0067 17.2013 13.0701 17.24C13.1798 17.3077 13.2409 17.4137 13.2534 17.558C13.269 17.7376 13.2146 17.8713 13.0901 17.9589C12.9664 18.0465 12.818 18.0972 12.6449 18.1109C12.443 18.1268 12.2805 18.0878 12.1574 17.9937C12.0344 17.9004 11.9664 17.766 11.9534 17.5906L12.16 17.5743Z" fill="#000981"/>
<path d="M13.6804 16.1953C13.8799 16.1431 14.049 16.1549 14.1878 16.2308C14.3266 16.3067 14.4203 16.4098 14.469 16.5398L14.2609 16.5943C14.2096 16.4993 14.1405 16.4315 14.0535 16.3909C13.9672 16.3501 13.8605 16.3463 13.7332 16.3797C13.5781 16.4203 13.4676 16.5077 13.4017 16.6418C13.3363 16.775 13.3343 16.9539 13.3958 17.1784C13.4462 17.3623 13.53 17.5003 13.6472 17.5926C13.765 17.684 13.9093 17.7073 14.0801 17.6625C14.2374 17.6213 14.3406 17.5298 14.3898 17.3878C14.4161 17.3129 14.4257 17.221 14.4189 17.1121L14.6269 17.0576C14.6536 17.2278 14.6301 17.3825 14.5564 17.5217C14.4682 17.6892 14.3179 17.8007 14.1056 17.8563C13.9226 17.9043 13.7538 17.8893 13.5992 17.8114C13.3954 17.7082 13.2518 17.5041 13.1682 17.1991C13.1048 16.9675 13.1142 16.7614 13.1965 16.581C13.2854 16.3851 13.4467 16.2565 13.6804 16.1953Z" fill="#000981"/>
<path d="M14.2401 16.1421L14.4318 16.0501L14.7131 16.6271L15.4416 16.2775L15.1602 15.7006L15.3519 15.6087L16.0329 17.0049L15.8412 17.0968L15.5227 16.4439L14.7943 16.7934L15.1127 17.4464L14.9211 17.5383L14.2401 16.1421Z" fill="#000981"/>
<path d="M15.9103 15.0494C16.1405 14.8774 16.3663 14.8239 16.5877 14.889C16.7604 14.9397 16.9142 15.0549 17.0488 15.2346C17.1945 15.4291 17.2663 15.6276 17.264 15.8303C17.2615 16.0683 17.1528 16.2675 16.938 16.428C16.7374 16.5779 16.5301 16.6295 16.3161 16.5829C16.118 16.5317 15.9459 16.4086 15.7997 16.2136C15.6677 16.0374 15.5986 15.854 15.5922 15.6633C15.5842 15.4185 15.6902 15.2139 15.9103 15.0494ZM16.841 16.2543C16.9966 16.138 17.0674 15.9984 17.0534 15.8356C17.0395 15.6717 16.9783 15.5174 16.8697 15.3726C16.755 15.2195 16.6224 15.1263 16.472 15.093C16.3221 15.0594 16.1776 15.0945 16.0386 15.1984C15.9037 15.2992 15.8284 15.4278 15.8127 15.5843C15.7966 15.7401 15.8561 15.9082 15.9912 16.0885C16.0993 16.2327 16.2269 16.3273 16.3741 16.3722C16.5215 16.4161 16.6771 16.3768 16.841 16.2543Z" fill="#000981"/>
<path d="M16.9397 14.0189C17.133 13.8063 17.3445 13.7111 17.574 13.7332C17.7532 13.7503 17.9258 13.8344 18.0919 13.9855C18.2717 14.149 18.3797 14.3305 18.4158 14.5301C18.4583 14.7645 18.3893 14.9808 18.2089 15.1791C18.0404 15.3644 17.8467 15.4543 17.6279 15.449C17.4239 15.4362 17.2317 15.3478 17.0514 15.1838C16.8886 15.0357 16.786 14.8685 16.7437 14.6823C16.6895 14.4433 16.7548 14.2222 16.9397 14.0189ZM18.0809 15.0268C18.2116 14.8831 18.2546 14.7325 18.2101 14.5752C18.1654 14.4168 18.0762 14.2767 17.9423 14.1549C17.8008 14.0262 17.653 13.9597 17.4991 13.9555C17.3457 13.9508 17.2105 14.0126 17.0937 14.141C16.9804 14.2656 16.9309 14.4062 16.9451 14.5629C16.9588 14.7192 17.049 14.8731 17.2156 15.0246C17.349 15.1459 17.4921 15.2147 17.645 15.231C17.7979 15.2462 17.9432 15.1781 18.0809 15.0268Z" fill="#000981"/>
<path d="M17.3949 13.3677L17.515 13.1828L18.7188 13.9618L19.1679 13.2705L19.3307 13.3758L18.7615 14.252L17.3949 13.3677Z" fill="#000981"/>
<path d="M4.32556 17.8794L4.78627 18.2582L4.72256 18.3355L4.3453 18.0254L4.18743 18.2171L4.5363 18.5039L4.47613 18.577L4.12726 18.2902L3.95099 18.5043L4.3347 18.8197L4.27275 18.895L3.80559 18.5109L4.32556 17.8794Z" fill="#000981"/>
<path d="M4.73578 19.1114C4.76659 19.1328 4.79414 19.1472 4.81843 19.1545C4.86209 19.1672 4.90699 19.1644 4.95312 19.1463C4.99 19.1317 5.02716 19.1059 5.06458 19.0691C5.08677 19.047 5.1054 19.0251 5.12046 19.0035C5.17839 18.9203 5.20675 18.8442 5.20554 18.7752C5.20463 18.7063 5.16742 18.6464 5.09389 18.5954L4.93236 18.4834L4.57333 18.9988L4.73578 19.1114ZM4.89526 18.3418L5.16754 18.5306C5.25998 18.5947 5.30886 18.6772 5.31419 18.778C5.31848 18.8686 5.28848 18.9601 5.22418 19.0524C5.17453 19.1236 5.11623 19.1788 5.04927 19.2177C4.93112 19.2867 4.81438 19.2811 4.69906 19.2012L4.4277 19.013L4.89526 18.3418Z" fill="#000981"/>
<path d="M5.74902 18.9138L5.49606 19.3516C5.46634 19.403 5.45131 19.4513 5.45096 19.4965C5.44993 19.5643 5.48341 19.6177 5.55141 19.6566C5.63294 19.7032 5.70444 19.7071 5.7659 19.6683C5.79915 19.6471 5.83054 19.6109 5.86007 19.5598L6.11302 19.122L6.21067 19.1779L5.98084 19.5757C5.93051 19.6628 5.88002 19.7231 5.82938 19.7566C5.73679 19.8174 5.63055 19.8135 5.51067 19.7449C5.39078 19.6763 5.33411 19.587 5.34065 19.477C5.34424 19.4166 5.3712 19.3428 5.42153 19.2557L5.65137 18.8579L5.74902 18.9138Z" fill="#000981"/>
<path d="M6.77814 19.4374C6.87193 19.4814 6.93295 19.5402 6.96121 19.6137C6.98947 19.6873 6.9915 19.7567 6.96731 19.822L6.86949 19.7762C6.8811 19.7234 6.87691 19.6753 6.85691 19.6318C6.83724 19.5886 6.79748 19.5529 6.73765 19.5248C6.6647 19.4906 6.59347 19.4886 6.52395 19.5187C6.45493 19.5487 6.39523 19.6164 6.34485 19.722C6.30359 19.8084 6.29025 19.8881 6.30484 19.9609C6.31993 20.0336 6.36764 20.0888 6.44798 20.1265C6.52194 20.1612 6.59176 20.1593 6.65745 20.1208C6.69219 20.1006 6.7262 20.0686 6.75947 20.0247L6.85729 20.0706C6.81145 20.1443 6.75143 20.1959 6.67724 20.2255C6.58818 20.2612 6.49374 20.2556 6.3939 20.2088C6.30784 20.1684 6.24796 20.1086 6.21426 20.0292C6.17007 19.9244 6.1822 19.8003 6.25065 19.6569C6.30263 19.548 6.37416 19.4722 6.46525 19.4297C6.56392 19.3833 6.66822 19.3859 6.77814 19.4374Z" fill="#000981"/>
<path d="M7.44836 20.2714L7.46393 19.8906L7.20889 20.1802L7.44836 20.2714ZM7.45401 19.7569L7.57114 19.8015L7.5506 20.6692L7.43711 20.626L7.44881 20.3682L7.14636 20.253L6.97433 20.4497L6.86813 20.4093L7.45401 19.7569Z" fill="#000981"/>
<path d="M8.56087 20.138L8.53095 20.2308L8.26767 20.1488L8.04642 20.8348L7.93899 20.8014L8.16023 20.1154L7.89696 20.0334L7.92688 19.9407L8.56087 20.138Z" fill="#000981"/>
<path d="M8.73059 20.1868L8.8389 20.2151L8.62497 21.005L8.51666 20.9766L8.73059 20.1868Z" fill="#000981"/>
<path d="M9.43859 20.3329C9.58015 20.3617 9.67516 20.4284 9.72361 20.5331C9.76145 20.6147 9.76846 20.7106 9.74462 20.821C9.71883 20.9404 9.667 21.0335 9.58913 21.1003C9.49773 21.1787 9.38598 21.2044 9.25388 21.1775C9.13052 21.1524 9.04232 21.092 8.98928 20.9963C8.94326 20.905 8.93319 20.7995 8.95906 20.6797C8.98242 20.5715 9.02934 20.4845 9.09983 20.4185C9.19029 20.3338 9.30322 20.3053 9.43859 20.3329ZM9.28792 21.0832C9.38363 21.1027 9.46014 21.0827 9.51746 21.0231C9.57522 20.9633 9.6137 20.8889 9.63291 20.7999C9.65322 20.7059 9.64482 20.6252 9.60771 20.5578C9.57097 20.4904 9.50984 20.448 9.42433 20.4306C9.34135 20.4137 9.26751 20.4284 9.2028 20.4747C9.13816 20.5207 9.09389 20.599 9.06998 20.7097C9.05085 20.7983 9.05708 20.8776 9.08867 20.9477C9.1207 21.0175 9.18712 21.0627 9.28792 21.0832Z" fill="#000981"/>
<path d="M10.0217 20.4739L10.1516 20.4906L10.4701 21.2001L10.5616 20.5435L10.666 20.5569L10.5531 21.3675L10.4299 21.3516L10.1052 20.6419L10.0138 21.298L9.90882 21.2845L10.0217 20.4739Z" fill="#000981"/>
<path d="M11.3059 20.6147L11.4177 20.6208L11.3691 21.4378L11.2572 21.4317L11.3059 20.6147Z" fill="#000981"/>
<path d="M11.7378 21.191C11.7398 21.2375 11.7503 21.2753 11.7692 21.3045C11.8053 21.3591 11.8698 21.387 11.9626 21.388C12.0042 21.3885 12.0422 21.383 12.0765 21.3715C12.1429 21.3492 12.1764 21.3083 12.1772 21.2489C12.1778 21.2043 12.1642 21.1724 12.1366 21.1532C12.1086 21.1343 12.0646 21.1176 12.0047 21.1032L11.8941 21.0769C11.8219 21.0598 11.7709 21.0412 11.7411 21.0211C11.6895 20.9864 11.6641 20.935 11.665 20.8671C11.6659 20.7936 11.6921 20.7335 11.7436 20.6869C11.7951 20.6403 11.8674 20.6175 11.9607 20.6186C12.0464 20.6195 12.119 20.6412 12.1782 20.6834C12.2379 20.7253 12.2671 20.7918 12.266 20.8828L12.1618 20.8816C12.1568 20.8377 12.1453 20.804 12.1274 20.7804C12.0942 20.7373 12.0371 20.7153 11.9561 20.7144C11.8907 20.7136 11.8436 20.7268 11.8146 20.754C11.7857 20.7812 11.771 20.8129 11.7705 20.8493C11.77 20.8894 11.7864 20.919 11.8196 20.9379C11.8413 20.95 11.8907 20.9654 11.9677 20.9841L12.0821 21.0116C12.1373 21.0249 12.1798 21.0426 12.2096 21.0649C12.2611 21.1037 12.2864 21.1595 12.2855 21.2323C12.2843 21.3229 12.2505 21.3873 12.1839 21.4256C12.1176 21.4638 12.0409 21.4825 11.9536 21.4815C11.8519 21.4804 11.7725 21.4535 11.7156 21.4008C11.6587 21.3486 11.6314 21.2782 11.6336 21.1899L11.7378 21.191Z" fill="#000981"/>
<path d="M13.2301 21.0755L13.076 20.7246L12.9745 21.0949L13.2301 21.0755ZM13.0081 20.6079L13.1331 20.5984L13.4974 21.3914L13.3763 21.4007L13.2731 21.1627L12.9504 21.1873L12.8825 21.4383L12.7692 21.4469L13.0081 20.6079Z" fill="#000981"/>
<path d="M14.5721 20.4011L14.5894 20.4971L14.3175 20.543L14.4453 21.2524L14.3343 21.2712L14.2065 20.5617L13.9346 20.6077L13.9174 20.5117L14.5721 20.4011Z" fill="#000981"/>
<path d="M15.1772 20.6418C15.2278 20.6298 15.2652 20.6102 15.2895 20.5831C15.314 20.5559 15.3198 20.516 15.3066 20.4634C15.2925 20.4068 15.2622 20.3731 15.2159 20.3624C15.1912 20.3568 15.1604 20.3584 15.1235 20.3672L14.8601 20.4298L14.9279 20.7011L15.1772 20.6418ZM14.7291 20.363L15.0977 20.2754C15.1584 20.261 15.2106 20.2579 15.2544 20.2662C15.3377 20.2823 15.3907 20.3359 15.4135 20.4271C15.4254 20.4746 15.4252 20.5159 15.4129 20.5509C15.401 20.5858 15.3796 20.6166 15.3488 20.6434C15.383 20.6486 15.4104 20.6597 15.4311 20.6765C15.4521 20.6933 15.4693 20.7245 15.4827 20.7702L15.5131 20.8758C15.5217 20.9058 15.5299 20.9277 15.5376 20.9415C15.5504 20.9652 15.566 20.9786 15.5844 20.9819L15.5889 20.9997L15.4566 21.0312C15.4513 21.0252 15.4462 21.0171 15.4413 21.0068C15.4365 20.9965 15.4294 20.976 15.4202 20.9454L15.3806 20.8145C15.3651 20.7632 15.3371 20.733 15.2965 20.724C15.2735 20.7191 15.24 20.722 15.1959 20.7325L14.9504 20.7908L15.0355 21.1313L14.9276 21.157L14.7291 20.363Z" fill="#000981"/>
<path d="M15.5449 20.1553L16.1144 19.9776L16.1453 20.073L15.6789 20.2185L15.7554 20.4549L16.1866 20.3203L16.2158 20.4104L15.7845 20.545L15.8699 20.8089L16.3442 20.6609L16.3742 20.7537L15.7967 20.9338L15.5449 20.1553Z" fill="#000981"/>
<path d="M16.812 20.2239L16.5609 19.9345L16.5737 20.318L16.812 20.2239ZM16.4614 19.8432L16.578 19.7971L17.1612 20.4466L17.0482 20.4912L16.8791 20.2945L16.578 20.4133L16.5876 20.673L16.4819 20.7148L16.4614 19.8432Z" fill="#000981"/>
<path d="M17.3673 20.059C17.3902 20.0995 17.4168 20.1284 17.447 20.1459C17.5041 20.1784 17.5744 20.1742 17.6578 20.1335C17.6952 20.1152 17.7266 20.0933 17.752 20.0677C17.8012 20.0181 17.8126 19.9666 17.7862 19.9134C17.7664 19.8735 17.7398 19.8512 17.7063 19.8464C17.6727 19.8422 17.6258 19.8471 17.5657 19.8612L17.4549 19.8873C17.3826 19.9045 17.3286 19.9108 17.2928 19.9064C17.2309 19.8986 17.1849 19.8642 17.1547 19.8034C17.122 19.7375 17.1181 19.6723 17.1429 19.6077C17.1676 19.5432 17.2219 19.4905 17.3056 19.4496C17.3827 19.412 17.4573 19.3987 17.5295 19.4097C17.6019 19.4202 17.6583 19.4662 17.6987 19.5477L17.6051 19.5934C17.5806 19.5566 17.555 19.5317 17.5283 19.5187C17.479 19.4953 17.4179 19.5014 17.3452 19.5369C17.2865 19.5655 17.2503 19.5984 17.2369 19.6356C17.2234 19.6728 17.2247 19.7076 17.2409 19.7402C17.2587 19.7762 17.2867 19.7951 17.325 19.7971C17.35 19.7981 17.4011 19.7897 17.4784 19.7718L17.5932 19.7449C17.6485 19.7319 17.6945 19.7286 17.7313 19.7351C17.795 19.7465 17.843 19.7849 17.8753 19.8501C17.9156 19.9312 17.9147 20.0038 17.8726 20.0677C17.8309 20.1314 17.7708 20.1825 17.6924 20.2207C17.6009 20.2654 17.5178 20.277 17.443 20.2557C17.3684 20.2347 17.3119 20.1844 17.2737 20.1047L17.3673 20.059Z" fill="#000981"/>
<path d="M17.8383 19.1952L18.0992 19.6283C18.1299 19.6792 18.165 19.7158 18.2044 19.738C18.2634 19.772 18.3265 19.7689 18.3938 19.7287C18.4744 19.6805 18.5127 19.6202 18.5085 19.5479C18.5061 19.5087 18.4897 19.4638 18.4592 19.4132L18.1983 18.9801L18.2948 18.9224L18.532 19.3159C18.5839 19.4021 18.6122 19.4754 18.6169 19.5357C18.6252 19.6458 18.57 19.7363 18.4515 19.8071C18.3329 19.8779 18.2269 19.8837 18.1336 19.8245C18.0823 19.7919 18.0307 19.7326 17.9788 19.6464L17.7417 19.2529L17.8383 19.1952Z" fill="#000981"/>
<path d="M19.0518 18.8518C19.0937 18.8211 19.1207 18.7885 19.1326 18.754C19.1449 18.7193 19.135 18.6801 19.1029 18.6364C19.0684 18.5894 19.0278 18.5699 18.9811 18.5779C18.9562 18.5823 18.9285 18.5956 18.898 18.618L18.6796 18.7779L18.8451 19.0032L19.0518 18.8518ZM18.5338 18.7666L18.8394 18.5429C18.8897 18.5061 18.9365 18.483 18.98 18.4738C19.0626 18.4565 19.1318 18.4857 19.1874 18.5614C19.2164 18.6009 19.2319 18.6392 19.2339 18.6764C19.2361 18.7134 19.2282 18.7503 19.2101 18.787C19.2435 18.7786 19.273 18.7783 19.2984 18.7859C19.3241 18.7933 19.3517 18.8156 19.3814 18.8528L19.4495 18.9389C19.4688 18.9634 19.4846 18.9805 19.4969 18.9904C19.5177 19.0074 19.5372 19.0138 19.5554 19.0097L19.5663 19.0245L19.4566 19.1048C19.4494 19.1013 19.4417 19.0957 19.4333 19.0881C19.4249 19.0804 19.4106 19.0641 19.3905 19.0393L19.3044 18.9333C19.2706 18.8917 19.2334 18.8746 19.1927 18.8819C19.1697 18.8863 19.1399 18.9019 19.1034 18.9286L18.8998 19.0777L19.1075 19.3604L19.0181 19.4258L18.5338 18.7666Z" fill="#000981"/>
<path d="M19.2004 18.2671L19.6486 17.8736L19.7147 17.9489L19.3478 18.2711L19.5117 18.4577L19.8511 18.1597L19.9135 18.2308L19.5742 18.5288L19.7572 18.7371L20.1305 18.4094L20.1948 18.4826L19.7404 18.8816L19.2004 18.2671Z" fill="#000981"/>
<path d="M13.8888 8.06398L14.3529 7.78377C14.357 7.78125 14.3624 7.78251 14.3646 7.7866C14.5957 8.17133 14.8268 8.55606 15.0557 8.94205L15.3995 9.52073L15.7411 10.1003C15.9697 10.4867 16.1954 10.8742 16.4218 11.2618C16.6488 11.649 16.8727 12.0375 17.0978 12.4257C17.1 12.4298 17.1003 12.4349 17.0984 12.439L17.0972 12.4412C17.0937 12.4481 17.0855 12.4506 17.0786 12.4472C17.0761 12.4459 17.0742 12.444 17.0729 12.4418L17.0786 12.4472L16.9851 12.3939L17.0043 12.3851L16.9709 12.5485C16.9697 12.5545 16.9634 12.5589 16.9574 12.5577C16.9564 12.5573 16.9558 12.557 16.9549 12.5567L16.8195 12.4966L16.8336 12.4874L16.833 12.665C16.833 12.6697 16.8292 12.6735 16.8245 12.6735C16.8226 12.6735 16.821 12.6729 16.8198 12.6719L16.6523 12.5548L16.6643 12.5501L16.6262 12.7091C16.6255 12.7126 16.6224 12.7148 16.6192 12.7148C16.6167 12.7148 16.6136 12.7132 16.6123 12.711C16.3856 12.324 16.1567 11.9381 15.9256 11.5533L15.5802 10.9759L15.2373 10.3966L14.5588 9.23422L14.2219 8.65146L13.8879 8.06712C13.8873 8.06586 13.8876 8.06461 13.8888 8.06398ZM13.8929 8.0668L14.2399 8.64076L14.5853 9.21849L15.271 10.3768L15.6104 10.958L15.947 11.541C16.1709 11.9299 16.3966 12.3174 16.6246 12.7041L16.6186 12.7006L16.6126 12.7059L16.6494 12.5466C16.6504 12.5425 16.6545 12.54 16.6586 12.541C16.6595 12.5413 16.6605 12.5416 16.6611 12.5422L16.8292 12.6581L16.816 12.665L16.8135 12.4874C16.8135 12.4821 16.8179 12.4774 16.8232 12.4774C16.8248 12.4774 16.8261 12.4777 16.8273 12.478L16.964 12.5359L16.9482 12.5441L16.9788 12.3801C16.98 12.3732 16.987 12.3684 16.9939 12.37C16.9952 12.37 16.9964 12.3706 16.9977 12.3713L17.0915 12.4223C17.0937 12.4235 17.0953 12.4251 17.0965 12.427L17.0969 12.4279L17.0726 12.4286L17.0736 12.4267L17.0739 12.4399C16.8443 12.0542 16.6136 11.6695 16.3856 11.2829C16.1573 10.8969 15.9284 10.5109 15.7021 10.1236L15.3614 9.54309L15.0232 8.96126C14.7975 8.57338 14.5733 8.18455 14.3498 7.79573L14.3617 7.79888L13.8929 8.0668Z" fill="#E11E19"/>
<path d="M14.1567 7.44637C14.1766 7.47313 14.1952 7.50084 14.214 7.52823L14.2695 7.61167C14.288 7.63938 14.3057 7.66739 14.3236 7.69541C14.3412 7.72375 14.3592 7.75177 14.3765 7.78042C14.3828 7.79081 14.3793 7.80403 14.369 7.81064L14.3686 7.81096C14.3299 7.83457 14.2915 7.85787 14.2521 7.88054C14.2134 7.90353 14.1738 7.92493 14.1344 7.94728L14.016 8.0134C13.9763 8.03513 13.936 8.0559 13.8961 8.07668L13.8948 8.07732C13.8894 8.08015 13.8825 8.07794 13.8794 8.07259C13.8485 8.0134 13.817 7.95484 13.7827 7.89754C13.7657 7.8692 13.7484 7.84087 13.7301 7.81284L13.6747 7.72973C13.6706 7.72312 13.6722 7.71462 13.6788 7.71053L13.6801 7.70958C13.7176 7.68439 13.7553 7.65952 13.7944 7.63654C13.8331 7.61324 13.8728 7.5912 13.9121 7.56916C13.9911 7.5254 14.0711 7.48321 14.1539 7.44543C14.1549 7.44512 14.1561 7.44543 14.1567 7.44637ZM14.1539 7.45078C14.0815 7.50399 14.0063 7.55279 13.9304 7.60033C13.892 7.62395 13.8536 7.64787 13.8142 7.67022C13.7752 7.69321 13.7352 7.71399 13.6949 7.73477L13.7002 7.71462L13.7462 7.8034C13.7616 7.83299 13.7777 7.86196 13.7944 7.89093C13.8277 7.94854 13.8636 8.00458 13.9002 8.06031L13.8838 8.0559C13.9216 8.03134 13.9593 8.00616 13.9974 7.98192L14.1127 7.91044C14.1514 7.88715 14.1895 7.86291 14.2285 7.84024C14.2673 7.81694 14.3066 7.79459 14.346 7.77255L14.3381 7.80278C14.3214 7.77413 14.3057 7.74453 14.2896 7.71556C14.2739 7.68628 14.2578 7.657 14.2427 7.62741L14.1967 7.53862C14.1826 7.50934 14.1678 7.48038 14.1539 7.45078Z" fill="#E11E19"/>
<path d="M14.2268 7.6066C14.1604 7.65981 14.0905 7.70673 14.0196 7.75175C13.9841 7.77411 13.9479 7.79583 13.9113 7.81629C13.8745 7.83676 13.8377 7.85691 13.8005 7.87643L13.7989 7.87737C13.7904 7.88209 13.7794 7.87863 13.7747 7.86982C13.7593 7.84117 13.7454 7.81157 13.7309 7.78229L13.7303 7.7804C13.7275 7.77504 13.73 7.76844 13.7353 7.76592C13.7734 7.74734 13.8106 7.72814 13.8468 7.70641C13.883 7.68532 13.9173 7.66045 13.9513 7.63589C13.9856 7.61102 14.0209 7.58835 14.0577 7.56788C14.0943 7.5471 14.1314 7.52727 14.1692 7.5087L14.1711 7.50775C14.1774 7.50491 14.1849 7.50744 14.1878 7.51373C14.2019 7.54333 14.2158 7.57293 14.2274 7.60378C14.2281 7.60472 14.2274 7.60598 14.2268 7.6066ZM14.2221 7.60409C14.2016 7.57922 14.1827 7.55372 14.1642 7.52759L14.183 7.53231C14.1484 7.55655 14.1131 7.57953 14.0773 7.60125C14.0417 7.62329 14.0045 7.64313 13.9661 7.66107C13.928 7.6787 13.8896 7.69665 13.8534 7.71806C13.8172 7.73915 13.7819 7.76214 13.7476 7.78638L13.7517 7.77001C13.7706 7.79677 13.7895 7.82353 13.8071 7.85092L13.7813 7.84431C13.8169 7.82133 13.8525 7.79897 13.888 7.77662C13.9236 7.75458 13.9601 7.73349 13.997 7.71334C14.07 7.67367 14.1443 7.63589 14.2221 7.60409Z" fill="#E11E19"/>
<path d="M13.8259 7.92007C13.892 7.86686 13.9619 7.81964 14.0331 7.77493C14.0686 7.75226 14.1045 7.73086 14.1417 7.71071C14.1782 7.69025 14.2154 7.67009 14.2525 7.65057L14.2541 7.64963C14.2626 7.64523 14.273 7.64868 14.2774 7.65687V7.65719C14.29 7.68174 14.3019 7.70661 14.3139 7.73148L14.3149 7.73338C14.3174 7.73873 14.3152 7.74534 14.3098 7.74817C14.2717 7.76612 14.2343 7.78565 14.1984 7.80737C14.1622 7.82878 14.1282 7.85365 14.0938 7.87852C14.0598 7.90339 14.0243 7.92574 13.9874 7.94589C13.9509 7.96667 13.9134 7.98588 13.8753 8.00414L13.8734 8.00508C13.8678 8.0076 13.8609 8.0054 13.858 7.99942C13.8464 7.97454 13.835 7.94904 13.8253 7.92291C13.8246 7.92196 13.825 7.9207 13.8259 7.92007ZM13.8303 7.9226C13.8479 7.94338 13.8643 7.96478 13.8797 7.98682L13.8627 7.98242C13.8971 7.95786 13.932 7.93456 13.9679 7.91284C14.0035 7.89017 14.0403 7.87001 14.0787 7.85238C14.1168 7.83444 14.1552 7.81681 14.1914 7.79571C14.228 7.77494 14.2632 7.75163 14.2975 7.72739L14.2931 7.74376C14.2774 7.7211 14.2613 7.69843 14.2459 7.67545L14.2708 7.68206C14.2358 7.70504 14.2003 7.7274 14.1644 7.74975C14.1288 7.7721 14.0926 7.7932 14.0557 7.81335C13.9827 7.85333 13.9084 7.89112 13.8303 7.9226Z" fill="#E11E19"/>
<path d="M14.0548 7.98582C14.1754 8.17504 14.2925 8.36646 14.4087 8.55851C14.5233 8.7512 14.6398 8.94293 14.7509 9.13813L14.9162 9.43125C14.971 9.52916 15.0261 9.62676 15.0824 9.72404C15.1948 9.91798 15.3107 10.11 15.4275 10.3015C15.5449 10.4929 15.6614 10.6846 15.776 10.8773C15.8909 11.07 16.0065 11.2623 16.1195 11.4563C16.3449 11.8442 16.5679 12.2336 16.7835 12.6272C16.7838 12.6284 16.7835 12.6297 16.7826 12.6303C16.7813 12.6309 16.7801 12.6306 16.7794 12.6297C16.5401 12.2497 16.3084 11.8656 16.0792 11.4799C15.9649 11.2869 15.8529 11.0926 15.7405 10.8984C15.6281 10.7041 15.5169 10.5093 15.4067 10.3137C15.2965 10.1185 15.1848 9.92397 15.0702 9.73097C15.0125 9.63495 14.954 9.53924 14.8951 9.44353L14.7194 9.1567C14.603 8.96465 14.4921 8.76977 14.3794 8.57551C14.2683 8.38094 14.1578 8.18543 14.051 7.98802C14.0504 7.98708 14.051 7.9855 14.052 7.98519C14.0529 7.98456 14.0542 7.98488 14.0548 7.98582Z" fill="#E11E19"/>
<path d="M14.2106 7.89427C14.3305 8.08254 14.447 8.27302 14.5626 8.46413C14.6769 8.65555 14.7927 8.84634 14.9029 9.04028L15.0676 9.33213C15.122 9.42942 15.1768 9.52671 15.2325 9.62305C15.3446 9.81604 15.4599 10.0075 15.576 10.1976C15.6928 10.3881 15.8087 10.5789 15.9227 10.7706C16.0373 10.962 16.1519 11.1535 16.2646 11.3462C16.4887 11.7321 16.7211 12.1332 16.9352 12.5249C16.9358 12.5262 16.9292 12.5227 16.9279 12.5233C16.927 12.524 16.9216 12.5145 16.921 12.5136C16.6827 12.1358 16.4522 11.7535 16.224 11.3701C16.1106 11.1777 15.9989 10.9847 15.8871 10.7914C15.7753 10.5984 15.6648 10.4045 15.5556 10.2099C15.4457 10.0156 15.3346 9.82202 15.2203 9.63028C15.1633 9.53457 15.1047 9.43949 15.0465 9.34441L14.8714 9.05886C14.7556 8.86807 14.6454 8.67412 14.5336 8.48112C14.4228 8.28718 14.3129 8.09293 14.2068 7.89647C14.2062 7.89553 14.2068 7.89427 14.2077 7.89364C14.2087 7.89301 14.21 7.89333 14.2106 7.89427Z" fill="#E11E19"/>
<path d="M14.1562 7.44884C14.1194 7.47528 14.0822 7.50141 14.0445 7.52628C14.0067 7.55147 13.9689 7.57666 13.9308 7.60091C13.8924 7.62515 13.8543 7.64939 13.8156 7.67269C13.7772 7.69662 13.7381 7.71928 13.6991 7.74226L13.6984 7.74258C13.6874 7.74887 13.6736 7.74509 13.6673 7.73407L13.667 7.73377C13.6144 7.63963 13.5602 7.54675 13.5108 7.45104C13.4951 7.42491 13.4932 7.38933 13.5061 7.36194C13.5124 7.3484 13.5221 7.33612 13.5338 7.32699C13.5398 7.32227 13.5467 7.31849 13.5524 7.31566L13.57 7.3059C13.6169 7.27945 13.6635 7.25238 13.7088 7.2231L13.8436 7.134C13.8552 7.12676 13.8647 7.11857 13.8811 7.11164C13.8962 7.10535 13.9132 7.10283 13.9299 7.10503C13.9462 7.10692 13.9623 7.11259 13.9758 7.12235C13.9827 7.12707 13.989 7.13274 13.9944 7.13904C13.9972 7.14218 13.9994 7.14501 14.0023 7.1491L14.0079 7.15855C14.0611 7.25237 14.1125 7.34714 14.1572 7.44569C14.1575 7.44695 14.1572 7.44821 14.1562 7.44884ZM14.1518 7.446C14.0882 7.35942 14.0306 7.26938 13.9749 7.17807L13.9727 7.1743C13.9717 7.17272 13.9705 7.17115 13.9702 7.17052C13.9689 7.16895 13.967 7.16643 13.9654 7.16485C13.962 7.16076 13.9579 7.15761 13.9538 7.15477C13.9453 7.14911 13.9352 7.14501 13.9251 7.14375C13.9147 7.14249 13.9044 7.14344 13.8943 7.14659C13.8855 7.14942 13.8729 7.15761 13.8609 7.16328L13.7173 7.23758C13.6698 7.26308 13.6235 7.29047 13.5775 7.3188C13.5668 7.32604 13.5533 7.33266 13.5454 7.34053C13.5366 7.34871 13.53 7.35911 13.5259 7.37013C13.518 7.3928 13.5218 7.41703 13.536 7.43593C13.5958 7.52565 13.6506 7.61853 13.7073 7.71015L13.6751 7.70196C13.7142 7.67867 13.7532 7.65568 13.7926 7.63364C13.8319 7.61129 13.8719 7.58989 13.9116 7.56816C13.9513 7.54644 13.9916 7.52565 14.0319 7.50519C14.0715 7.48441 14.1115 7.46489 14.1518 7.446Z" fill="#E11E19"/>
<path d="M17.1513 13.0892C17.1403 13.0366 17.1309 12.984 17.1221 12.9311C17.1126 12.8764 17.1041 12.8216 17.0966 12.7668C17.0884 12.712 17.0815 12.6569 17.0748 12.6021C17.0682 12.547 17.0629 12.4919 17.0578 12.4368L17.0689 12.4532L16.9763 12.4L17.0056 12.3865C16.9942 12.4406 16.9823 12.4951 16.9697 12.5492L16.9694 12.5502C16.9675 12.5587 16.9593 12.5637 16.9508 12.5618C16.9498 12.5618 16.9486 12.5612 16.9476 12.5609L16.8132 12.4982L16.8302 12.4872C16.8286 12.5464 16.8264 12.6056 16.8261 12.6648V12.6651C16.8261 12.6689 16.823 12.672 16.8189 12.672C16.8176 12.672 16.816 12.6714 16.8151 12.6708C16.7594 12.6317 16.7036 12.5924 16.6473 12.554L16.658 12.5499C16.6454 12.6031 16.6341 12.6566 16.6221 12.7098L16.619 12.701L16.7591 12.7904C16.8057 12.8206 16.851 12.8527 16.8954 12.8858C16.9401 12.9185 16.9842 12.9522 17.0276 12.9865C17.0695 13.0196 17.111 13.0536 17.1513 13.0892ZM17.1532 13.0964C17.1047 13.069 17.0578 13.0394 17.0112 13.0095C16.9646 12.9793 16.9184 12.9485 16.873 12.9167C16.8274 12.8855 16.7827 12.8531 16.7389 12.8187L16.6089 12.7148L16.6083 12.7145C16.6057 12.7123 16.6045 12.7089 16.6054 12.706C16.6186 12.6528 16.6319 12.5999 16.6445 12.5467C16.6454 12.5433 16.6492 12.5407 16.6526 12.5417C16.6536 12.5417 16.6545 12.5423 16.6552 12.5426C16.7109 12.582 16.7669 12.6204 16.823 12.6591L16.812 12.6648C16.811 12.6056 16.8082 12.5467 16.806 12.4875C16.806 12.4809 16.811 12.4756 16.8173 12.4753C16.8192 12.4753 16.8208 12.4756 16.8223 12.4759L16.823 12.4762L16.9602 12.5316L16.9385 12.5433C16.9473 12.4882 16.9568 12.4334 16.9665 12.3786C16.9684 12.3679 16.9785 12.361 16.9892 12.3629C16.9914 12.3632 16.9933 12.3638 16.9952 12.3647L16.9958 12.3651L17.0896 12.4154C17.0959 12.4186 17.0997 12.4246 17.1007 12.4309V12.4318C17.1082 12.4866 17.1155 12.5417 17.1214 12.5968C17.1271 12.6519 17.1328 12.707 17.1372 12.7621C17.1422 12.8175 17.1463 12.8726 17.1491 12.928C17.1529 12.9834 17.1554 13.0388 17.1567 13.0945C17.1567 13.0958 17.1557 13.0967 17.1545 13.0967L17.1532 13.0964Z" fill="#E11E19"/>
<path d="M16.9009 12.9249L16.9053 12.928L17.16 13.0952L17.1376 12.7914L17.1367 12.7864L16.9009 12.9249Z" fill="#E11E19"/>
<path d="M9.13793 8.77058L9.51609 8.98549C9.51992 8.98773 9.52151 8.99282 9.51928 8.99697C9.34295 9.30848 9.16344 9.6181 8.9852 9.92834L8.44698 10.8568L7.90429 11.7825L7.35778 12.7065C7.35523 12.7113 7.35077 12.7145 7.3463 12.7161L7.34407 12.7167C7.33291 12.7205 7.32079 12.7145 7.31696 12.7033C7.31473 12.6963 7.31633 12.689 7.32016 12.6835L7.32079 12.6826L7.3514 12.7122L6.8693 13.1016V13.1019C6.86101 13.1083 6.84921 13.107 6.84252 13.099C6.83901 13.0945 6.83773 13.0888 6.83869 13.0837L6.94774 12.4737C6.94806 12.4718 6.94901 12.4696 6.94997 12.468L6.94805 12.4801V12.4795C6.9471 12.475 6.94773 12.4705 6.94997 12.467L9.13474 8.77154C9.13538 8.77026 9.13697 8.76995 9.13793 8.77058ZM9.13761 8.77632L6.97898 12.4843L6.98089 12.4721L6.98122 12.4728C6.98217 12.4772 6.98122 12.4814 6.9793 12.4849V12.4852L6.98122 12.4795L6.87599 13.0904L6.84538 13.0722L7.3243 12.6791C7.33355 12.6714 7.34694 12.673 7.35427 12.6819C7.36065 12.6899 7.36065 12.7008 7.35491 12.7084L7.35427 12.7094L7.33068 12.6762L7.33259 12.6752L7.32111 12.6848L7.86093 11.7573L8.40425 10.8316L8.95204 9.90889C9.13602 9.60215 9.31904 9.29445 9.50461 8.98868L9.50748 9.00016L9.13761 8.77632Z" fill="#000981"/>
<path d="M7.22453 12.6173L7.08711 12.5405C7.08424 12.5389 7.08328 12.5354 7.08487 12.5328C7.25992 12.222 7.43784 11.9124 7.61512 11.6027L8.15144 10.6765L8.42182 10.2145L8.6938 9.75373L9.23936 8.83288V8.83256C9.24478 8.82332 9.2569 8.82013 9.26646 8.82587L9.40197 8.90589C9.41122 8.91131 9.41441 8.92311 9.40899 8.93236L7.22804 12.6164C7.2274 12.6177 7.22581 12.618 7.22453 12.6173ZM7.22485 12.6116L9.37551 8.91291L9.38252 8.93906L9.24638 8.85998L9.27348 8.85265L8.73557 9.77828L8.46614 10.2406L8.1948 10.7017L7.64797 11.6219C7.46399 11.9277 7.28097 12.2341 7.09508 12.5383L7.09284 12.5306L7.22485 12.6116Z" fill="#000981"/>
<path d="M9.25514 8.841L9.3927 8.92114L7.22793 12.6171L7.09037 12.5369L9.25514 8.841Z" fill="#000981"/>
<path d="M6.96484 12.4782C6.99768 12.4932 7.02957 12.5097 7.06209 12.5254C7.09398 12.5416 7.12618 12.5579 7.15775 12.5748C7.22152 12.6079 7.28465 12.6424 7.34747 12.6774C7.35895 12.6838 7.36309 12.6982 7.35671 12.71C7.35512 12.7125 7.35321 12.7148 7.35129 12.7164L7.35034 12.717C7.31112 12.7501 7.2719 12.7833 7.23172 12.8152C7.19155 12.8474 7.15105 12.8786 7.11024 12.9102L6.86759 13.0999L6.86696 13.1002C6.85994 13.1057 6.84974 13.1047 6.84432 13.0977C6.84145 13.0935 6.84049 13.0888 6.84113 13.0846L6.90043 12.782L6.96102 12.4801C6.96134 12.4785 6.96261 12.4775 6.9642 12.4778L6.96484 12.4782ZM6.96548 12.4845L6.9202 12.7855L6.87333 13.09L6.84687 13.0747L7.08218 12.8755C7.12108 12.842 7.15998 12.8085 7.19952 12.7756C7.23906 12.7428 7.27923 12.7113 7.31973 12.6794L7.3226 12.7192C7.2617 12.6816 7.20079 12.6433 7.14085 12.6041C7.11056 12.5843 7.08059 12.5646 7.05093 12.5442C7.02256 12.5244 6.99354 12.5053 6.96548 12.4845Z" fill="#000981"/>
<path d="M6.91175 12.8142L6.91015 12.8196L6.85754 13.0865L7.06448 12.9102L7.0683 12.906L6.91175 12.8142Z" fill="#000981"/>
<path d="M6.91286 12.8123C6.9422 12.8222 6.97026 12.834 6.99832 12.8465C7.02606 12.8589 7.05316 12.872 7.08026 12.886C7.09142 12.892 7.09557 12.9054 7.08983 12.9166C7.08919 12.9182 7.08823 12.9198 7.08696 12.9211L7.08185 12.9271L7.07994 12.9287C7.04742 12.9606 7.01203 12.989 6.97568 13.0161L6.86791 13.0996L6.86695 13.1006C6.85961 13.106 6.84941 13.1047 6.84399 13.0977C6.8408 13.0936 6.83985 13.0885 6.84112 13.0837C6.85196 13.0397 6.86217 12.9954 6.87333 12.9513L6.90744 12.8193L6.90904 12.8139C6.90968 12.8126 6.91095 12.812 6.91223 12.8123H6.91286ZM6.91318 12.819L6.91286 12.8206L6.89373 12.9555C6.88767 13.0005 6.88034 13.0454 6.87333 13.0901L6.84654 13.0744L6.94602 12.9816C6.97855 12.9498 7.01234 12.9191 7.04901 12.8924L7.0471 12.894L7.05125 12.8901L7.05634 12.9271C7.03084 12.9102 7.00597 12.893 6.98174 12.8748C6.95814 12.857 6.93518 12.8388 6.91318 12.819Z" fill="#000981"/>
<path d="M10.3464 7.14035C10.163 7.03257 10.0454 7.19169 9.99147 7.28383C9.98605 7.29276 9.98063 7.30201 9.97553 7.31093L9.89964 7.2663C9.80909 7.21337 9.70546 7.27873 9.65349 7.36705L8.93001 8.60037C8.90706 8.63959 8.91821 8.68902 8.9552 8.7107C8.99219 8.73238 9.04097 8.71803 9.06393 8.67913L9.78741 7.44581C9.79665 7.4305 9.82025 7.41105 9.8515 7.42923L9.89199 7.45315C9.58844 7.97064 9.10697 8.79137 9.10697 8.79137L9.50618 9.02572C9.50618 9.02572 10.1085 7.99902 10.3907 7.51819C10.442 7.4305 10.5208 7.2427 10.3464 7.14035Z" fill="#000981"/>
<path d="M12.2631 14.1141C12.1849 14.1141 12.1005 14.0932 12.0138 14.051C11.9535 14.0215 11.8969 13.9859 11.8371 13.9479C11.7693 13.905 11.6931 13.8566 11.5992 13.8102C10.508 13.8072 9.26628 13.8906 7.69084 14.0758C7.66793 14.0781 7.64601 14.068 7.63358 14.049C7.62114 14.03 7.62049 14.0055 7.63194 13.9859C7.88224 13.5576 8.1175 13.1512 8.34523 12.7582C8.55791 12.3911 8.7588 12.0443 8.95774 11.703C8.97442 11.6745 9.0114 11.6647 9.03987 11.6814C9.06866 11.6981 9.07815 11.7351 9.06146 11.7635C8.86252 12.1045 8.66163 12.4513 8.44895 12.8184C8.23954 13.1796 8.02392 13.552 7.79619 13.9427C9.32681 13.7657 10.5423 13.6848 11.6133 13.6904C11.6224 13.6904 11.6313 13.6924 11.6391 13.6963C11.7448 13.7473 11.8279 13.8 11.9012 13.8465C11.9607 13.8841 12.0121 13.9168 12.0661 13.943C12.143 13.9803 12.2892 14.0313 12.4061 13.9525C12.4404 13.9293 12.4715 13.8955 12.5042 13.8599C12.5487 13.8118 12.5945 13.7617 12.6557 13.7306C12.7287 13.6933 12.8082 13.692 12.8717 13.6907C14.2115 13.6652 15.3021 13.6946 16.1158 13.7784C15.7147 13.0789 15.3747 12.3335 15.1044 11.5617C15.0933 11.5306 15.1097 11.4962 15.1411 11.4854C15.1722 11.4743 15.2065 11.4907 15.2177 11.5221C15.4987 12.3247 15.8557 13.0978 16.2787 13.8206C16.2902 13.8402 16.2899 13.8645 16.2774 13.8834C16.265 13.9027 16.2428 13.9132 16.2202 13.9106C15.4006 13.8173 14.2747 13.7836 12.8739 13.8108C12.8173 13.8118 12.7588 13.8128 12.7104 13.8376C12.6685 13.8589 12.6315 13.8991 12.5926 13.9414C12.5566 13.9806 12.5193 14.0209 12.4731 14.0519C12.4119 14.0935 12.3403 14.1141 12.2631 14.1141Z" fill="#000100"/>
<path d="M12.2339 13.7963C12.2261 13.7963 12.2195 13.7898 12.2192 13.7819L12.2117 13.6006C12.1862 12.9881 12.1639 12.4591 12.1904 11.8096C12.1908 11.8014 12.1979 11.7949 12.2061 11.7952C12.2143 11.7955 12.2209 11.8027 12.2205 11.8109C12.194 12.4591 12.215 12.9623 12.2415 13.5993L12.249 13.7806C12.2493 13.7888 12.2431 13.796 12.2346 13.7963H12.2339Z" fill="#000100"/>
<path d="M12.2067 11.7786C12.2243 11.7793 12.2377 11.7946 12.237 11.8118C12.2106 12.4591 12.232 12.9619 12.2585 13.5989L12.2653 13.7796C12.266 13.7965 12.2532 13.8121 12.2351 13.8128H12.2341C12.2169 13.8128 12.2035 13.7989 12.2028 13.7825L12.195 13.6018C12.1695 12.9894 12.147 12.4591 12.1735 11.8089C12.1743 11.7914 12.1895 11.7779 12.2067 11.7786Z" fill="black"/>
<path d="M11.9028 13.9003C11.8969 13.9003 11.8913 13.8967 11.889 13.8911C11.8858 13.8833 11.8894 13.8748 11.8969 13.8715C11.9996 13.828 12.1158 13.7786 12.2339 13.7786H12.2342C12.2699 13.7786 12.3042 13.7832 12.3396 13.7877C12.4083 13.7972 12.4777 13.8087 12.5454 13.8214C12.5536 13.8227 12.5588 13.8306 12.5575 13.8388C12.5559 13.847 12.548 13.8522 12.5398 13.8509C12.4727 13.8381 12.4037 13.827 12.3357 13.8175C12.3013 13.8129 12.2679 13.8087 12.2342 13.8087H12.2339C12.122 13.8087 12.0137 13.8545 11.9087 13.899C11.9067 13.9 11.9047 13.9003 11.9028 13.9003Z" fill="#000100"/>
<path d="M12.2345 13.762C12.2714 13.762 12.3069 13.7662 12.3419 13.7708C12.4109 13.7803 12.481 13.7921 12.549 13.8049H12.548C12.5659 13.8078 12.5768 13.8247 12.5744 13.8411L12.5734 13.842C12.5699 13.8593 12.5539 13.8701 12.5373 13.8674H12.5363C12.4696 13.8548 12.4008 13.8437 12.3332 13.8342C12.2989 13.8297 12.2668 13.8255 12.2345 13.8254H12.2335C12.1259 13.8255 12.0206 13.8687 11.9152 13.9133C11.9106 13.9155 11.9063 13.9172 11.9025 13.9172C11.8902 13.9171 11.8781 13.9096 11.8732 13.8977C11.8664 13.8814 11.875 13.8626 11.8908 13.8557C11.9926 13.8126 12.1118 13.7621 12.2335 13.762H12.2345Z" fill="black"/>
<path d="M12.2237 13.7767C12.2211 13.7767 12.2188 13.7761 12.2165 13.7748C12.2093 13.7708 12.2067 13.7617 12.2106 13.7545C12.4086 13.4034 12.7459 13.1335 13.1356 13.014C13.4743 12.9103 13.8531 12.9106 14.2625 13.0153C14.4401 13.0608 14.6175 13.124 14.7886 13.1852C15.0952 13.2948 15.3857 13.3985 15.6881 13.4129C15.3219 12.8249 15.069 12.165 14.8017 11.4674L14.7536 11.3421C14.5762 11.3892 14.3953 11.3372 14.2206 11.2868C14.1879 11.2776 14.1555 11.2681 14.1231 11.2596C13.2321 11.0208 12.6801 11.1827 12.2175 11.8194C12.2126 11.8263 12.2034 11.8276 12.1966 11.8227C12.19 11.8178 12.1884 11.8087 12.1933 11.8018C12.6644 11.1533 13.2259 10.988 14.1309 11.2305C14.1633 11.2393 14.196 11.2488 14.2288 11.258C14.4038 11.3084 14.5851 11.3607 14.7585 11.3097C14.766 11.3074 14.7739 11.3113 14.7765 11.3185L14.8295 11.4566C15.1001 12.1624 15.356 12.8292 15.7283 13.4207C15.7312 13.4257 15.7316 13.4315 15.729 13.4365C15.726 13.441 15.7195 13.4436 15.7152 13.444C15.3978 13.4348 15.0831 13.3223 14.7785 13.2133C14.608 13.1524 14.4316 13.0893 14.2549 13.0441C13.8512 12.9411 13.4775 12.9404 13.1444 13.0425C12.7619 13.16 12.4312 13.4247 12.2368 13.7692C12.2342 13.7741 12.2289 13.7767 12.2237 13.7767Z" fill="#000100"/>
<path d="M12.9952 11.1664C13.3115 11.0733 13.6812 11.0928 14.1348 11.2143H14.1358C14.1681 11.2231 14.2011 11.2326 14.2335 11.2416V11.2426C14.4095 11.2933 14.5861 11.3428 14.754 11.2934V11.2944L14.7764 11.2953C14.7835 11.2987 14.7891 11.305 14.792 11.3129L14.8448 11.4506C15.0816 12.0683 15.3072 12.6548 15.6085 13.1869L15.7422 13.4125L15.7471 13.4282C15.7474 13.4336 15.747 13.4395 15.7442 13.4448L15.7432 13.4457C15.7397 13.4511 15.7346 13.4544 15.7305 13.4565C15.7264 13.4585 15.7213 13.46 15.7169 13.4604L15.7149 13.4614V13.4604C15.3944 13.4511 15.0766 13.3377 14.7725 13.2289C14.602 13.1681 14.4267 13.1049 14.251 13.06C13.8496 12.9575 13.4791 12.958 13.1495 13.059C12.7713 13.1751 12.4443 13.4365 12.252 13.7768C12.2461 13.7879 12.2341 13.7934 12.2237 13.7934C12.218 13.7934 12.2127 13.7921 12.2081 13.7895V13.7885C12.1933 13.7799 12.1882 13.7614 12.1963 13.7465L12.2774 13.6176C12.4821 13.3259 12.7863 13.1041 13.1309 12.9985C13.473 12.8937 13.855 12.8941 14.2667 12.9994C14.4451 13.0451 14.6231 13.1083 14.794 13.1694C15.0899 13.2751 15.3686 13.3731 15.6563 13.393C15.2987 12.8107 15.0491 12.159 14.7862 11.4731L14.7432 11.3608C14.5653 11.4028 14.3851 11.352 14.2159 11.3032C14.1831 11.294 14.1513 11.2842 14.1192 11.2758C13.6754 11.1568 13.3177 11.1381 13.0147 11.227C12.712 11.3159 12.4613 11.5133 12.2315 11.8295C12.2262 11.837 12.2181 11.8411 12.21 11.8422L12.1866 11.8364C12.173 11.8262 12.1695 11.8068 12.1797 11.7924L12.2696 11.6752C12.4827 11.4158 12.7179 11.2481 12.9952 11.1664ZM15.7022 13.4213C15.7006 13.4241 15.6971 13.4238 15.6944 13.4252C15.7003 13.4255 15.7061 13.426 15.712 13.4262C15.7086 13.4208 15.7056 13.415 15.7022 13.4096C15.7032 13.4137 15.7044 13.4175 15.7022 13.4213ZM14.7559 11.3266C14.7581 11.3269 14.7599 11.3274 14.7618 11.3285L14.7608 11.3256C14.7592 11.3261 14.7575 11.3261 14.7559 11.3266Z" fill="black"/>
<path d="M12.2041 11.8129C12.1995 11.8129 12.1953 11.8109 12.1923 11.8073C11.9672 11.5302 11.7159 11.2602 11.4058 11.1637C11.2098 11.1025 10.986 11.1068 10.701 11.1771C10.6241 11.1961 10.5465 11.2187 10.4713 11.2406C10.3371 11.2795 10.1981 11.3198 10.0587 11.3414C9.89869 11.3659 9.70695 11.3849 9.49722 11.3394C9.48904 11.3375 9.4838 11.3296 9.48576 11.3214C9.4874 11.3132 9.49558 11.3083 9.50343 11.31C9.70859 11.3545 9.89672 11.3358 10.0541 11.3116C10.1919 11.2907 10.3296 11.2504 10.4628 11.2118C10.5384 11.1899 10.6166 11.167 10.6938 11.148C10.9843 11.0763 11.2134 11.0721 11.4146 11.1349C11.7323 11.2341 11.9875 11.5076 12.2156 11.7883C12.2208 11.7949 12.2198 11.8044 12.2133 11.8096C12.2107 11.8116 12.2074 11.8129 12.2041 11.8129Z" fill="#000100"/>
<path d="M10.6895 11.1318C10.9818 11.0597 11.2149 11.0551 11.42 11.1191C11.7427 11.22 12.0008 11.497 12.2286 11.7773V11.7783C12.2392 11.7919 12.2373 11.8112 12.2237 11.8223V11.8232C12.2188 11.8269 12.2117 11.8291 12.2041 11.8291C12.1947 11.8291 12.1859 11.8249 12.1797 11.8174C11.9545 11.5401 11.7052 11.2745 11.4004 11.1797C11.2084 11.1198 10.9881 11.1235 10.7051 11.1933C10.6286 11.2122 10.5509 11.2349 10.4756 11.2568C10.3419 11.2956 10.2019 11.3356 10.0616 11.3574C9.90101 11.382 9.70677 11.4015 9.49419 11.3555H9.49321C9.47691 11.3514 9.46551 11.3351 9.46977 11.3174H9.47075C9.47477 11.3001 9.49089 11.2906 9.50688 11.2939L9.65532 11.3154C9.8002 11.3276 9.93424 11.313 10.0518 11.2949C10.1882 11.2742 10.3247 11.234 10.4581 11.1953C10.5334 11.1734 10.612 11.1509 10.6895 11.1318Z" fill="black"/>
<path d="M12.2126 13.7822C12.207 13.7822 12.2015 13.7793 12.1989 13.7737C12.0899 13.543 11.889 13.3919 11.7473 13.298C10.9153 12.7473 9.85876 12.7142 8.99039 13.2122L8.9701 13.2237C8.78065 13.3326 8.56601 13.4563 8.36773 13.315C8.36152 13.3107 8.35955 13.3019 8.36348 13.2953C8.74859 12.6481 9.1265 11.983 9.48707 11.3178C9.491 11.3106 9.50016 11.308 9.50736 11.3119C9.51488 11.3158 9.5175 11.325 9.51357 11.3322C9.15497 11.9934 8.77902 12.6547 8.39652 13.2983C8.57616 13.4157 8.77738 13.2999 8.95505 13.1978L8.97533 13.1861C9.85385 12.6825 10.9225 12.7159 11.764 13.2731C11.9086 13.3686 12.1138 13.5234 12.226 13.7609C12.2296 13.7685 12.2264 13.7773 12.2188 13.7809C12.2169 13.7819 12.2146 13.7822 12.2126 13.7822Z" fill="#000100"/>
<path d="M9.51567 11.2975L9.51469 11.2985C9.53037 11.3069 9.53665 11.3253 9.52836 11.3405C9.17251 11.9967 8.79941 12.6528 8.41997 13.2917C8.5005 13.3385 8.58491 13.3389 8.67192 13.3141C8.76446 13.2878 8.85716 13.2345 8.94633 13.1833L8.96684 13.1716C9.85081 12.6649 10.9267 12.6987 11.7735 13.2595C11.9186 13.3553 12.127 13.512 12.2413 13.7536C12.2489 13.7697 12.2412 13.7891 12.2256 13.7966L12.2247 13.7956C12.2202 13.7976 12.2161 13.7995 12.2129 13.7995C12.2017 13.7995 12.1893 13.793 12.1836 13.7809C12.0768 13.5548 11.8795 13.4058 11.7383 13.3122C10.9116 12.765 9.86196 12.7325 8.99907 13.2272H8.99809L8.97856 13.238C8.8844 13.2921 8.78135 13.352 8.6768 13.3796C8.59752 13.4004 8.51611 13.4031 8.43657 13.3718L8.35844 13.3288C8.34497 13.3196 8.34028 13.3009 8.34868 13.2868L8.91997 12.3053C9.1076 11.9751 9.29246 11.6427 9.4727 11.3102L9.49125 11.2946C9.49903 11.2924 9.5081 11.2934 9.51567 11.2975ZM12.2129 13.7653L12.2139 13.7663H12.2129V13.7653ZM12.2139 13.7663V13.7673V13.7663ZM8.73344 13.3239C8.74215 13.3205 8.75112 13.3178 8.75981 13.3141C8.75109 13.3178 8.7422 13.3206 8.73344 13.3239ZM8.37895 13.3024L8.37993 13.3034C8.37947 13.3019 8.38091 13.3001 8.3809 13.2985C8.38016 13.2998 8.37969 13.3012 8.37895 13.3024Z" fill="black"/>
<path d="M11.9079 12.8299C11.9132 12.8224 11.9114 12.8114 11.9039 12.8061C11.4615 12.493 10.9245 12.3673 10.4166 12.356C9.90899 12.3447 9.42863 12.4479 9.09727 12.5961C9.08888 12.5998 9.08504 12.6096 9.08871 12.618C9.09244 12.6263 9.10219 12.6302 9.11058 12.6265C9.43705 12.4804 9.91271 12.378 10.416 12.3892C10.9193 12.4005 11.4486 12.5257 11.8841 12.834C11.8915 12.8393 11.9025 12.8373 11.9079 12.8299Z" fill="#000100"/>
<path d="M11.9079 12.3804C11.9131 12.3728 11.9111 12.3626 11.9035 12.3574C11.325 11.9603 10.7017 11.8951 10.2237 11.9296C9.98479 11.9468 9.78196 11.9892 9.63875 12.0269C9.56713 12.0458 9.51019 12.0641 9.47132 12.0772C9.45195 12.0838 9.43663 12.0885 9.4265 12.0922C9.4215 12.0941 9.41778 12.0959 9.41519 12.0969C9.41396 12.0974 9.41284 12.0974 9.41218 12.0976L9.4111 12.0985C9.4026 12.1019 9.39852 12.1116 9.40191 12.1201C9.40534 12.1286 9.415 12.1326 9.42353 12.1292L9.4245 12.1293C9.42511 12.1291 9.42639 12.1282 9.42762 12.1277C9.43002 12.1268 9.43344 12.1255 9.43785 12.1238C9.44766 12.1202 9.46273 12.1152 9.4817 12.1088C9.51993 12.0959 9.57626 12.0778 9.64708 12.0592C9.78874 12.0219 9.98953 11.9803 10.226 11.9632C10.6992 11.9291 11.3145 11.9933 11.8849 12.3849C11.8924 12.39 11.9027 12.388 11.9079 12.3804Z" fill="#000100"/>
<path d="M11.9073 11.9935C11.9129 11.9864 11.9118 11.9764 11.9049 11.9707C11.3916 11.5692 10.7871 11.506 10.3127 11.543C10.0755 11.5615 9.87028 11.6046 9.7243 11.6435C9.65128 11.6629 9.59275 11.6818 9.55273 11.6952C9.5328 11.7019 9.5173 11.7072 9.50682 11.711C9.50158 11.713 9.49724 11.7146 9.49454 11.7157C9.4933 11.7161 9.49218 11.7161 9.49152 11.7163L9.49044 11.7172C9.48196 11.7206 9.47789 11.7303 9.48124 11.7388C9.48465 11.7473 9.49432 11.7513 9.50284 11.7479L9.50382 11.748C9.50445 11.7478 9.50567 11.7469 9.50694 11.7464C9.5095 11.7454 9.51334 11.7444 9.51815 11.7427C9.52833 11.7389 9.54346 11.7333 9.56308 11.7268C9.6025 11.7135 9.66035 11.695 9.7326 11.6758C9.87713 11.6373 10.0803 11.5939 10.315 11.5756C10.785 11.539 11.3801 11.6016 11.8845 11.9961C11.8917 12.0016 11.9017 12.0008 11.9073 11.9935Z" fill="#000100"/>
<path d="M12.4604 13.8094C12.4564 13.8094 12.4522 13.8077 12.4493 13.8045C12.4437 13.7982 12.444 13.7887 12.4502 13.7832C12.6282 13.6173 12.8772 13.5155 13.1694 13.4894C13.4014 13.4688 13.6363 13.4943 13.8637 13.5191L13.9386 13.5273C14.5561 13.5937 15.8504 13.6726 16.0428 13.6755C15.8845 13.3912 15.734 13.1 15.6286 12.8732C15.5255 12.6517 15.4346 12.4191 15.3462 12.194C15.2523 11.9538 15.1555 11.7058 15.0433 11.4706C15.0207 11.4837 14.9952 11.4908 14.9696 11.4902C14.9611 11.4899 14.9546 11.483 14.9549 11.4748C14.9549 11.4666 14.9618 11.4594 14.9703 11.4601C14.9958 11.4607 15.0197 11.4522 15.0403 11.4365C15.0439 11.4336 15.0485 11.4326 15.0527 11.4339C15.0573 11.4349 15.0609 11.4378 15.0629 11.4418C15.1787 11.6829 15.2782 11.9371 15.3744 12.1832C15.4621 12.4077 15.553 12.6396 15.6558 12.8608C15.7637 13.0925 15.9188 13.3922 16.0811 13.6827C16.0834 13.687 16.0837 13.6922 16.0818 13.6965C16.0798 13.7007 16.0759 13.704 16.071 13.705C16.0301 13.7128 14.5934 13.6278 13.9354 13.5574L13.8604 13.5492C13.6347 13.5244 13.4011 13.4988 13.172 13.5195C12.8864 13.545 12.6439 13.6438 12.4705 13.8051C12.4676 13.8081 12.464 13.8094 12.4604 13.8094Z" fill="#000100"/>
<path d="M15.0782 11.4343L15.2413 11.8044C15.2927 11.9291 15.3417 12.0545 15.3897 12.1775C15.4774 12.4019 15.5685 12.6337 15.671 12.8542C15.7248 12.9698 15.791 13.102 15.8634 13.2419L16.0958 13.6746C16.1003 13.6829 16.1011 13.6944 16.0968 13.7039L16.0743 13.7214C16.0714 13.722 16.0672 13.7223 16.0636 13.7224C16.0594 13.7225 16.0535 13.7225 16.047 13.7224C16.0339 13.7222 16.0162 13.7213 15.9942 13.7205C15.9496 13.7187 15.887 13.7157 15.8116 13.7117C15.6608 13.7037 15.4567 13.692 15.2335 13.6775C15.0104 13.663 14.768 13.6454 14.5401 13.6277L13.9337 13.574L13.8585 13.5662C13.6326 13.5413 13.4008 13.5155 13.1739 13.5359C12.8914 13.5611 12.6517 13.6581 12.4815 13.8162C12.4753 13.8223 12.4678 13.8259 12.46 13.8259C12.4519 13.8258 12.4429 13.8221 12.4366 13.8152C12.4257 13.8026 12.4259 13.7831 12.4386 13.7712C12.6198 13.6023 12.873 13.4988 13.168 13.4724C13.4018 13.4516 13.6383 13.4779 13.8653 13.5027L13.9405 13.5105C14.5319 13.5741 15.7452 13.6483 16.0138 13.657C15.8607 13.381 15.7156 13.1007 15.6134 12.8806C15.51 12.6586 15.4194 12.425 15.3311 12.2C15.239 11.9644 15.1434 11.7224 15.0343 11.4919C15.0136 11.501 14.9915 11.5072 14.9688 11.5066C14.9604 11.5062 14.9529 11.5026 14.9473 11.4968L14.9386 11.4744C14.9388 11.4579 14.9522 11.4422 14.9708 11.4431C14.9917 11.4437 15.0118 11.4376 15.0294 11.4246C15.0366 11.4187 15.0463 11.4164 15.0557 11.4187L15.0567 11.4177V11.4187L15.0782 11.4343ZM16.0577 13.6843C16.0559 13.6874 16.052 13.6878 16.0489 13.6892C16.0546 13.6893 16.0592 13.6893 16.0626 13.6892L16.0645 13.6882C16.0621 13.6838 16.0602 13.679 16.0577 13.6746C16.0579 13.6779 16.0595 13.6814 16.0577 13.6843ZM15.0401 11.4548C15.0428 11.4543 15.0453 11.4541 15.0479 11.4548C15.0495 11.4553 15.0505 11.4569 15.0518 11.4578C15.0507 11.4554 15.0491 11.4533 15.0479 11.4509C15.0456 11.4527 15.0426 11.4533 15.0401 11.4548Z" fill="black"/>
<path d="M12.0071 13.8458C12.0035 13.8458 11.9999 13.8445 11.9973 13.8418C11.6239 13.5009 11.1557 13.4024 10.8285 13.3795C10.3894 13.3491 9.94609 13.4302 9.56458 13.5091C9.49881 13.5225 9.43337 13.5362 9.3676 13.5503C9.0198 13.6236 8.65988 13.6998 8.30062 13.7218C8.19592 13.7283 8.08401 13.7283 7.97244 13.6527C7.96622 13.6485 7.96393 13.6403 7.96753 13.6334C8.15501 13.2791 8.36475 12.9234 8.56728 12.5792C8.77047 12.2337 8.96286 11.9071 9.13562 11.5806C9.13791 11.5763 9.14249 11.5734 9.1474 11.5727C9.18405 11.5685 9.24556 11.5567 9.26192 11.5466C9.26879 11.5423 9.27828 11.5446 9.28254 11.5518C9.28712 11.5587 9.28482 11.5678 9.27762 11.5724C9.25537 11.5862 9.19255 11.5973 9.15852 11.6015C8.98642 11.9264 8.79534 12.251 8.59313 12.5946C8.39289 12.9345 8.1861 13.2856 8.00058 13.6354C8.1007 13.6982 8.19853 13.6979 8.29866 13.692C8.65595 13.6697 9.01456 13.5942 9.36139 13.5209C9.42716 13.5071 9.49292 13.4931 9.55836 13.4796C9.94183 13.4005 10.3881 13.319 10.8308 13.3497C11.1626 13.3726 11.6377 13.4731 12.0172 13.8196C12.0235 13.8255 12.0238 13.835 12.0182 13.8409C12.0153 13.8441 12.0113 13.8458 12.0071 13.8458Z" fill="#000100"/>
<path d="M9.29584 11.5437C9.30575 11.559 9.30023 11.5776 9.28608 11.5866C9.27229 11.5951 9.24881 11.6022 9.22651 11.6071C9.20637 11.6116 9.18454 11.6136 9.16791 11.6159C8.99659 11.9388 8.80805 12.2623 8.60736 12.6032C8.41008 12.9382 8.20654 13.2834 8.02338 13.6276C8.11425 13.6797 8.2027 13.6811 8.29779 13.6755C8.65359 13.6533 9.01139 13.5779 9.35834 13.5046C9.42374 13.4909 9.48941 13.4769 9.55463 13.4636C9.93814 13.3844 10.3868 13.3028 10.832 13.3337C11.1655 13.3567 11.6449 13.4574 12.0283 13.8073C12.0346 13.8133 12.0387 13.8217 12.039 13.8298L12.0302 13.8522C12.024 13.8591 12.0155 13.863 12.0068 13.863C11.9994 13.8629 11.9913 13.8601 11.9853 13.8542V13.8532C11.6161 13.5166 11.1522 13.419 10.8271 13.3962C10.3907 13.366 9.94965 13.4473 9.5683 13.5261C9.5026 13.5395 9.43676 13.553 9.37104 13.5671C9.02349 13.6403 8.66236 13.717 8.3017 13.739C8.22259 13.7439 8.13674 13.7456 8.04975 13.7126L7.96283 13.6667C7.95 13.6579 7.9454 13.6403 7.95307 13.6257C8.14071 13.2711 8.35025 12.915 8.55268 12.571C8.75591 12.2254 8.94849 11.8991 9.12104 11.573L9.14545 11.5564L9.20893 11.5456C9.21948 11.5433 9.22928 11.5412 9.23725 11.5388C9.24539 11.5363 9.25064 11.5342 9.25287 11.5329C9.26766 11.5238 9.2868 11.5288 9.29584 11.5437ZM7.98236 13.6394L7.98432 13.6403C7.98386 13.6388 7.98528 13.6371 7.98529 13.6355C7.98454 13.6369 7.98312 13.6379 7.98236 13.6394Z" fill="black"/>
<path d="M12.3274 13.797C12.3241 13.797 12.3208 13.7961 12.3182 13.7941C12.3117 13.7889 12.3104 13.7797 12.3156 13.7728C12.6039 13.3969 13.042 13.1574 13.4876 13.1322C13.8204 13.1132 14.1492 13.2071 14.4672 13.2977C14.5019 13.3079 14.5366 13.3177 14.5713 13.3272C14.9819 13.4427 15.4204 13.5435 15.848 13.5012C15.5149 12.8655 15.2126 12.1856 14.9237 11.4245C14.8861 11.4396 14.8455 11.4448 14.8056 11.4399C14.7974 11.4386 14.7915 11.4314 14.7928 11.4229C14.7938 11.4147 14.8013 11.4088 14.8095 11.4101C14.8488 11.415 14.889 11.4085 14.9256 11.3912C14.9296 11.3892 14.9338 11.3892 14.9378 11.3908C14.9417 11.3921 14.9446 11.3954 14.9463 11.3993C15.2391 12.1728 15.546 12.8622 15.8847 13.5068C15.8869 13.5111 15.8869 13.5163 15.8847 13.5209C15.8824 13.5251 15.8781 13.5281 15.8732 13.5287C15.4338 13.5772 14.9839 13.4744 14.5631 13.3563C14.5284 13.3465 14.4937 13.3367 14.4591 13.3265C14.1436 13.2365 13.8171 13.1436 13.4893 13.1619C13.0521 13.1868 12.6222 13.4221 12.3392 13.7911C12.3362 13.7951 12.332 13.797 12.3274 13.797Z" fill="#000100"/>
<path d="M14.9618 11.3927V11.3937C15.2544 12.1666 15.561 12.8553 15.8993 13.4992V13.5284C15.8945 13.5373 15.8858 13.5436 15.8758 13.545H15.8749C15.432 13.5938 14.9794 13.4904 14.5585 13.3722C14.5238 13.3624 14.4887 13.3531 14.454 13.3429V13.3419C14.1382 13.2519 13.8144 13.1607 13.4901 13.1788C13.0582 13.2034 12.6327 13.4364 12.3524 13.8019L12.3514 13.8009C12.3452 13.809 12.3365 13.8136 12.327 13.8136C12.3207 13.8135 12.3141 13.8119 12.3085 13.8077L12.3075 13.8068C12.2944 13.7959 12.2919 13.7769 12.3026 13.7628L12.4178 13.6271C12.7036 13.3261 13.0918 13.1378 13.4862 13.1154C13.8221 13.0962 14.1541 13.1909 14.4715 13.2814L14.4676 13.298L14.4628 13.3097L14.4637 13.3107L14.4676 13.298L14.4715 13.2824C14.5061 13.2925 14.5415 13.3022 14.576 13.3117C14.9783 13.4248 15.4049 13.5211 15.8212 13.4855C15.4946 12.8597 15.1969 12.1911 14.913 11.4445C14.8775 11.4559 14.8396 11.4607 14.8026 11.4562C14.7864 11.4534 14.7734 11.4383 14.7762 11.42C14.7787 11.4035 14.7942 11.3913 14.8114 11.3937C14.8471 11.3981 14.8842 11.3928 14.9178 11.3771V11.3761C14.9259 11.3721 14.9345 11.3733 14.9423 11.3761H14.9432L14.9618 11.3927ZM15.8632 13.5089C15.8619 13.5111 15.8583 13.5114 15.8563 13.5128C15.8602 13.5124 15.8641 13.5123 15.868 13.5118C15.8662 13.5084 15.865 13.5046 15.8632 13.5011C15.8632 13.5037 15.8644 13.5065 15.8632 13.5089ZM14.9237 11.4093C14.926 11.4093 14.9284 11.4084 14.9305 11.4093C14.9315 11.4098 14.9316 11.4116 14.9325 11.4122C14.9318 11.4103 14.9313 11.4083 14.9305 11.4064C14.9283 11.4074 14.926 11.4083 14.9237 11.4093Z" fill="black"/>
<path d="M12.0857 13.8174C12.0815 13.8174 12.0772 13.8158 12.0743 13.8122C11.7854 13.4869 11.381 13.2599 10.9353 13.1722C10.5335 13.0937 10.0859 13.1247 9.64158 13.2628C9.55586 13.2897 9.46653 13.3201 9.38048 13.3495C8.97279 13.4892 8.55103 13.6335 8.13059 13.5171C8.12601 13.5157 8.12241 13.5125 8.12077 13.5082C8.11914 13.504 8.11947 13.4991 8.12176 13.4948C8.20585 13.3515 8.31906 13.1643 8.43848 12.9657C8.77549 12.4069 9.19496 11.7116 9.30228 11.4534C9.30424 11.4488 9.30849 11.4452 9.31307 11.4443C9.32845 11.4413 9.34351 11.4403 9.3579 11.4397C9.38735 11.4381 9.41254 11.4367 9.43414 11.4168C9.44003 11.4112 9.44952 11.4115 9.45508 11.4178C9.46097 11.4237 9.46064 11.4331 9.45442 11.4387C9.42498 11.4662 9.3916 11.4678 9.35954 11.4698C9.34808 11.4701 9.33729 11.4708 9.32682 11.4724C9.21394 11.7384 8.79872 12.4268 8.46433 12.9814C8.34948 13.1719 8.24053 13.3521 8.15775 13.4932C8.56282 13.5979 8.97345 13.4572 9.37066 13.3214C9.45704 13.2916 9.54637 13.2612 9.63275 13.2344C10.082 13.0946 10.5342 13.0632 10.9412 13.1431C11.3931 13.2317 11.8034 13.4624 12.0969 13.7925C12.1024 13.7984 12.1018 13.8079 12.0956 13.8135C12.0926 13.8161 12.089 13.8174 12.0857 13.8174Z" fill="#000100"/>
<path d="M9.46548 11.407L9.46646 11.4061V11.407H9.46743L9.46646 11.408C9.47218 11.4142 9.47637 11.4208 9.47622 11.4285L9.46548 11.451C9.43131 11.4827 9.39231 11.4842 9.36099 11.4861H9.36001C9.35198 11.4864 9.3446 11.4873 9.33755 11.4881C9.27858 11.6238 9.14872 11.8586 8.99282 12.1268C8.83303 12.4016 8.64535 12.7128 8.47817 12.99C8.36882 13.1714 8.26531 13.3436 8.18423 13.4813C8.5764 13.5739 8.974 13.4391 9.36489 13.3055C9.4512 13.2757 9.54102 13.2455 9.62759 13.2186C10.079 13.0782 10.534 13.0464 10.944 13.1268C11.3991 13.2161 11.813 13.4483 12.109 13.7811L12.1168 13.8045L12.1071 13.826C12.1013 13.8312 12.0932 13.8338 12.0856 13.8338C12.0771 13.8337 12.0677 13.831 12.0612 13.823V13.8221C11.7749 13.5003 11.374 13.2752 10.9323 13.1883C10.5335 13.1104 10.0882 13.1417 9.64614 13.2791C9.56098 13.3058 9.47212 13.3357 9.38638 13.365C8.97986 13.5044 8.55276 13.6509 8.12661 13.533H8.12564C8.11641 13.5302 8.10867 13.5235 8.10513 13.5145C8.10168 13.5055 8.10258 13.4945 8.10708 13.4861C8.19123 13.3427 8.3051 13.1553 8.42446 12.9568C8.5929 12.6775 8.7818 12.3643 8.94204 12.0887C9.10257 11.8125 9.2336 11.5749 9.28677 11.4471L9.30923 11.4275H9.31021C9.32668 11.4244 9.34265 11.4233 9.35708 11.4227L9.39517 11.4188C9.40554 11.4163 9.41438 11.4125 9.42251 11.4051C9.43495 11.3933 9.45358 11.3947 9.46548 11.407ZM12.0866 13.8016V13.8006H12.0856L12.0866 13.8016ZM8.13735 13.5008C8.13995 13.5015 8.14257 13.502 8.14517 13.5027C8.14435 13.5017 8.14278 13.5011 8.14224 13.4998C8.14135 13.4977 8.1422 13.4952 8.14224 13.493C8.14067 13.4956 8.1389 13.4981 8.13735 13.5008Z" fill="black"/>
<path d="M12.459 12.9377L12.4705 12.9296C12.4787 12.9242 12.491 12.9162 12.5071 12.9064C12.5394 12.8869 12.5872 12.8597 12.6491 12.8293C12.7731 12.7684 12.9542 12.695 13.1804 12.6437C13.6327 12.541 14.2674 12.5276 14.9956 12.8871C15.0038 12.8912 15.0138 12.8879 15.0179 12.8798C15.0219 12.8716 15.0188 12.8616 15.0106 12.8575C14.2744 12.4939 13.6315 12.5065 13.1728 12.6106C12.9438 12.6626 12.7607 12.7375 12.6348 12.7993C12.5718 12.8302 12.523 12.8584 12.4899 12.8784C12.4735 12.8884 12.4608 12.8961 12.4523 12.9017C12.4481 12.9045 12.4449 12.9072 12.4427 12.9087C12.4417 12.9094 12.4404 12.9094 12.4398 12.9097L12.4398 12.9107C12.4323 12.9161 12.4301 12.9267 12.4355 12.9343C12.4409 12.9415 12.4516 12.9429 12.459 12.9377Z" fill="#000100"/>
<path d="M14.8692 12.4012C14.8732 12.3931 14.8697 12.3831 14.8617 12.379C14.2116 12.0615 13.6009 12.0791 13.1536 12.1759C12.9301 12.2243 12.7467 12.2923 12.6195 12.3485C12.5562 12.3765 12.5069 12.402 12.4732 12.4201C12.4563 12.4291 12.4425 12.4357 12.4337 12.4408C12.4294 12.4432 12.4264 12.4456 12.4241 12.4469L12.4213 12.4489C12.4135 12.4538 12.4103 12.4647 12.4151 12.4726C12.4201 12.4802 12.431 12.4825 12.4388 12.4777L12.4387 12.4768C12.4392 12.4765 12.4406 12.4763 12.4416 12.4757C12.4437 12.4744 12.4471 12.4729 12.4512 12.4705C12.4597 12.4657 12.4721 12.4578 12.4887 12.449C12.5218 12.4313 12.5707 12.407 12.6331 12.3794C12.7586 12.3239 12.9396 12.2558 13.1604 12.2079C13.6024 12.1123 14.2052 12.0953 14.8469 12.4087C14.8552 12.4127 14.8652 12.4095 14.8692 12.4012Z" fill="#000100"/>
<path d="M12.4458 12.062L12.4457 12.0611C12.4461 12.0608 12.4477 12.0605 12.4486 12.0599C12.4502 12.0587 12.4528 12.0566 12.456 12.0545C12.4627 12.05 12.4729 12.0438 12.486 12.0358C12.5129 12.0192 12.5534 11.9951 12.6056 11.9688C12.7098 11.9163 12.8625 11.8514 13.0557 11.8018C13.443 11.7023 13.9939 11.6647 14.6467 11.9115C14.6553 11.9147 14.6653 11.9097 14.6685 11.9012C14.6716 11.8926 14.6667 11.8826 14.6581 11.8794C13.9981 11.6301 13.4403 11.6682 13.0475 11.769C12.8512 11.8195 12.6959 11.886 12.5898 11.9396C12.5369 11.9663 12.4958 11.9897 12.4683 12.0066C12.4545 12.0151 12.4445 12.0226 12.4374 12.0274C12.4339 12.0297 12.4308 12.0316 12.429 12.0328L12.4271 12.034L12.4262 12.034C12.4188 12.0393 12.4168 12.0503 12.422 12.0578C12.4273 12.0652 12.4383 12.0672 12.4458 12.062Z" fill="#000100"/>
<path d="M4.61288 19.5453L4.45877 19.4229L3.13327 18.3665L3.1317 18.3649C3.08933 18.3327 3.03781 18.3378 3.00407 18.3584C2.96996 18.3794 2.943 18.4239 2.95476 18.4767L2.95351 18.4761L3.24468 19.8879L3.27002 20.0093L4.61288 19.5453ZM3.22388 18.7163L4.1705 19.4688L3.43216 19.7239L3.22388 18.7163Z" fill="#AB0D1C"/>
<path d="M20.9927 18.3227C20.99 18.3217 20.9834 18.3198 20.9756 18.3183C20.9719 18.3176 20.9636 18.3162 20.9534 18.3162C20.9506 18.3162 20.9415 18.3159 20.9294 18.3187L20.8857 18.3398L20.878 18.3462L20.8767 18.3468C20.8761 18.3474 20.8756 18.349 20.8744 18.3501C20.8719 18.3525 20.8671 18.3561 20.8619 18.361C20.8511 18.3711 20.8351 18.3868 20.8127 18.4072C20.7674 18.4486 20.6969 18.5117 20.5992 18.5981C20.4036 18.771 20.0964 19.037 19.6506 19.4084L19.5078 19.5268L20.8182 20.0201L20.8433 19.895L21.1348 18.4836L21.1355 18.4818C21.144 18.4373 21.1216 18.406 21.1184 18.4013C21.1118 18.3916 21.1056 18.3845 21.1028 18.3819C21.0968 18.3763 21.0907 18.3729 21.0881 18.3711C21.0825 18.3672 21.0764 18.3633 21.0722 18.3609C21.0629 18.3556 21.0514 18.3492 21.041 18.344C21.0308 18.3389 21.0197 18.3334 21.0101 18.3292C21.0056 18.3272 20.9991 18.3249 20.9927 18.3227ZM20.6575 19.728L19.931 19.4545C20.3028 19.143 20.5677 18.9141 20.7435 18.7588C20.7985 18.7102 20.8443 18.6682 20.8825 18.6338L20.6575 19.728Z" fill="#AB0D1C"/>
<path d="M21.0562 18.2702C20.5803 17.7799 20.1046 17.2902 19.6292 16.7997L19.5323 16.6998L19.4326 16.798C15.3183 20.849 8.75701 20.8674 4.66378 16.8391L4.56461 16.7415L2.93521 18.4208L3.03431 18.5184C5.52586 20.9704 8.76727 22.1934 12.0131 22.1897C15.2729 22.1859 18.538 20.9446 21.0534 18.4681L21.153 18.37L21.0562 18.2702ZM20.7594 18.366C18.3121 20.7242 15.1611 21.9062 12.0142 21.9099C8.88108 21.9135 5.75309 20.749 3.32886 18.4146C3.53531 18.2018 3.74169 17.989 3.94814 17.7763C4.15498 17.5631 4.3619 17.35 4.56876 17.1368C8.7425 21.1415 15.3314 21.1231 19.5261 17.0952C19.9371 17.519 20.3483 17.9424 20.7594 18.366Z" fill="#E11E19"/>
</svg>
