<svg width="16" height="16" viewBox="0 0 16 16" fill="none" xmlns="http://www.w3.org/2000/svg">
<g clip-path="url(#clip0_204_667)">
<path d="M14.915 7.09925L8.751 0.81575C8.55125 0.61225 8.28475 0.5 8.00025 0.5C7.71575 0.5 7.44925 0.61225 7.24975 0.81575L1.0855 7.099C0.75175 7.439 0.5 8.0575 0.5 8.538V14.4235C0.5 15.017 0.97525 15.5 1.55975 15.5H14.441C15.025 15.5 15.5 15.017 15.5 14.4235V8.538C15.5 8.05725 15.2485 7.43875 14.915 7.09925ZM14.7135 14.4235C14.7135 14.5763 14.5888 14.7055 14.4408 14.7055H1.55975C1.4115 14.7055 1.2865 14.5763 1.2865 14.4235V8.538C1.2865 8.26825 1.45675 7.849 1.644 7.65825L7.80825 1.375C7.85925 1.323 7.9275 1.2945 8.00025 1.2945C8.073 1.2945 8.141 1.323 8.1925 1.37525L14.3567 7.659C14.5437 7.84925 14.7137 8.2685 14.7137 8.5385L14.7135 14.4235Z" fill="#002B7F"/>
<path d="M9.24174 6.70825C9.93474 6.70825 10.495 6.1415 10.495 5.4425C10.495 4.7435 9.93499 4.17725 9.24174 4.17725C8.55099 4.17725 7.98999 4.7435 7.98999 5.4425C7.98999 6.1415 8.55099 6.70825 9.24174 6.70825Z" fill="#002B7F"/>
<path d="M6.20023 7.49787C6.7619 7.49787 7.21723 7.03784 7.21723 6.47037C7.21723 5.9029 6.7619 5.44287 6.20023 5.44287C5.63855 5.44287 5.18323 5.9029 5.18323 6.47037C5.18323 7.03784 5.63855 7.49787 6.20023 7.49787Z" fill="#002B7F"/>
<path d="M11.5348 10.7626L11.9375 9.73782L10.9855 9.35582L11.5938 8.14157C11.6155 8.098 11.625 8.04931 11.6211 8.00076C11.6172 7.95221 11.6002 7.90564 11.5718 7.86607L10.769 6.75257C10.7618 6.74207 10.7505 6.73632 10.7418 6.72707C10.7358 6.72057 10.733 6.71157 10.7263 6.70607C10.7213 6.70182 10.7148 6.70132 10.71 6.69757C10.6892 6.68247 10.6662 6.67066 10.6418 6.66257C10.6308 6.65882 10.621 6.65332 10.6095 6.65082C10.5725 6.64219 10.534 6.64211 10.497 6.65057L8.699 7.07757C8.64741 7.09039 8.60099 7.1187 8.56599 7.15871C8.53099 7.19872 8.5091 7.24849 8.50325 7.30132C8.5015 7.30432 8.4985 7.30632 8.497 7.30932L7.81825 8.72557L7.276 7.86482C7.261 7.84132 7.2415 7.82482 7.2215 7.80757C7.21251 7.77849 7.19827 7.75129 7.1795 7.72732C7.15498 7.6981 7.12438 7.67458 7.08984 7.65839C7.0553 7.6422 7.01765 7.63373 6.9795 7.63357H5.42C5.41375 7.63357 5.40825 7.63732 5.402 7.63782C5.34971 7.63029 5.29637 7.63886 5.24907 7.66239C5.20178 7.68593 5.16277 7.72332 5.13725 7.76957L4.57025 8.79682L3.56025 9.55257C3.50445 9.59487 3.46746 9.65737 3.45722 9.72664C3.44698 9.79592 3.46432 9.86644 3.5055 9.92307C3.52585 9.95092 3.55151 9.97446 3.58101 9.99232C3.61051 10.0102 3.64325 10.022 3.67736 10.0272C3.71146 10.0323 3.74624 10.0306 3.77969 10.0223C3.81315 10.0139 3.8446 9.99894 3.87225 9.97832L4.92775 9.18832C4.9575 9.16582 4.9825 9.13732 5.0005 9.10432L5.26075 8.63257L5.392 9.54382L4.61775 11.1063C4.57675 11.1888 4.58125 11.2871 4.62975 11.3651C4.6775 11.4426 4.7615 11.4896 4.85225 11.4896H4.855L4.915 11.4888L4.76625 11.8008C4.7505 11.8327 4.74172 11.8675 4.7405 11.9031L4.6615 13.5703C4.65965 13.6049 4.66463 13.6395 4.67616 13.6721C4.68768 13.7047 4.70553 13.7348 4.72868 13.7605C4.75184 13.7862 4.77983 13.8072 4.81107 13.822C4.84232 13.8369 4.87619 13.8455 4.91075 13.8473L4.92375 13.8478C5.06275 13.8478 5.1785 13.7376 5.18525 13.5956L5.26175 11.9818L5.4995 11.4831L6.2695 11.4753L6.3045 11.7663C6.30875 11.8006 6.3195 11.8341 6.336 11.8641L7.29975 13.5993C7.348 13.6858 7.437 13.7346 7.52875 13.7346C7.57225 13.7346 7.61625 13.7236 7.65675 13.7006C7.78325 13.6291 7.828 13.4673 7.757 13.3401L6.81875 11.6506L6.797 11.4696L7.36125 11.4641C7.44825 11.4631 7.52925 11.4186 7.577 11.3453C7.625 11.2721 7.634 11.1793 7.60075 11.0981L7.4115 10.6351L7.9105 10.7778L8.11325 10.0536L7.62425 9.91357L7.828 9.30582L8.1205 9.17032C8.17575 9.14432 8.2205 9.10032 8.247 9.04482L8.55725 8.39732L8.65475 10.0863C8.65525 10.0901 8.65725 10.0928 8.6575 10.0966L8.131 11.1551C8.09971 11.218 8.08557 11.2881 8.09 11.3583L8.23375 13.6896C8.23953 13.7898 8.28324 13.884 8.35601 13.9532C8.42877 14.0223 8.52513 14.0612 8.6255 14.0618L8.6505 14.0613C8.75516 14.0541 8.85267 14.0056 8.9217 13.9266C8.99072 13.8476 9.02562 13.7445 9.01875 13.6398L8.8815 11.4158L9.4185 10.3358H9.7295L9.6735 11.3338C9.66875 11.4153 9.68925 11.4963 9.73175 11.5658L11.0295 13.6788C11.0565 13.7229 11.092 13.7612 11.1339 13.7915C11.1758 13.8218 11.2233 13.8436 11.2736 13.8555C11.3239 13.8674 11.3761 13.8693 11.4271 13.861C11.4782 13.8527 11.5271 13.8343 11.571 13.8071C11.6597 13.7508 11.7227 13.6618 11.7463 13.5595C11.77 13.4571 11.7525 13.3496 11.6975 13.2601L10.4653 11.2541L10.5158 10.3531L11.5348 10.7626ZM10.7735 7.65857L11.0533 8.04682L10.707 8.73882L10.7735 7.65857ZM7.37 9.02082V9.02182L7.11875 9.76932L7.04925 9.74957L6.97075 9.55682L7.1265 8.61407L7.3745 9.00782L7.37 9.02082Z" fill="#002B7F"/>
</g>
<defs>
<clipPath id="clip0_204_667">
<rect width="16" height="16" fill="white"/>
</clipPath>
</defs>
</svg>
