<svg width="24" height="24" viewBox="0 0 24 24" fill="none" xmlns="http://www.w3.org/2000/svg">
<path d="M5.67163 1.92188V3.70045C6.38516 4.19405 6.8436 5.1225 6.8436 6.14077C6.8436 6.78342 6.66074 7.38998 6.34682 7.87444C6.50924 7.93772 6.67991 8.00803 6.8226 8.07L12.5578 7.00205L12.8353 9.57277L7.59707 10.6612C7.55666 11.4234 7.48222 12.1734 7.34915 13.0783H23.1093V1.92188H5.67163ZM4.49985 4.17188C3.72196 4.17188 2.99976 5.00377 2.99976 6.14081C2.99976 7.27786 3.72196 8.10966 4.49985 8.10966C5.27774 8.10966 5.99994 7.27786 5.99994 6.14081C5.99994 5.00377 5.27774 4.17188 4.49985 4.17188ZM11.8168 7.99823L6.7266 8.94605C6.0591 8.68345 6.49429 8.80378 5.72024 8.54681C5.3698 8.80317 4.95477 8.95331 4.49985 8.95331C4.09672 8.95331 3.72501 8.83505 3.40166 8.62988C2.99901 8.79694 2.57408 9.00909 2.19529 9.22303C1.58629 9.567 1.08332 9.8423 0.890381 9.97458V16.0783H1.82807V10.8751H2.67163V23.2033H4.07807V15.2813H4.92163V23.2033H6.14057V15.1483L6.14779 15.1097C6.59376 12.7359 6.73785 11.4823 6.77877 9.96956L11.9144 8.90241L11.8168 7.99823ZM7.21593 13.9221C7.1713 14.1884 7.1226 14.4677 7.06846 14.7656H22.4061V13.9221H7.21593ZM9.74985 16.1719C8.97196 16.1719 8.24976 17.0038 8.24976 18.1408C8.24976 18.9938 8.65616 19.675 9.18772 19.9621C9.35643 19.8842 9.53844 19.8353 9.73522 19.8285C9.9524 19.821 10.1562 19.8645 10.347 19.9419C10.8612 19.6442 11.2499 18.9749 11.2499 18.1408C11.2499 17.0038 10.5277 16.1719 9.74985 16.1719ZM14.9999 16.1719C14.222 16.1719 13.4998 17.0038 13.4998 18.1408C13.4998 18.9938 13.9062 19.675 14.4377 19.9621C14.6064 19.8842 14.7884 19.8353 14.9852 19.8285C15.2024 19.821 15.4062 19.8645 15.597 19.9419C16.1112 19.6442 16.4999 18.9749 16.4999 18.1408C16.4999 17.0038 15.7777 16.1719 14.9999 16.1719ZM20.2499 16.1719C19.472 16.1719 18.7498 17.0038 18.7498 18.1408C18.7498 18.9938 19.1562 19.675 19.6877 19.9621C19.8564 19.8842 20.0384 19.8353 20.2352 19.8285C20.4524 19.821 20.6562 19.8645 20.847 19.9419C21.3612 19.6442 21.7499 18.9749 21.7499 18.1408C21.7499 17.0038 21.0277 16.1719 20.2499 16.1719ZM9.76447 20.6717C9.58429 20.6779 9.34696 20.809 9.09416 21.0835C8.84136 21.3579 8.59279 21.7515 8.38518 22.1504C8.18708 22.531 8.02851 22.9079 7.91361 23.2033H11.9139C11.7714 22.9016 11.5793 22.5213 11.3451 22.1387C11.0968 21.7329 10.8056 21.3354 10.517 21.0626C10.2283 20.7899 9.96383 20.6648 9.76447 20.6717ZM15.0145 20.6717C14.8343 20.6779 14.597 20.809 14.3442 21.0835C14.0914 21.3579 13.8428 21.7515 13.6352 22.1504C13.4371 22.531 13.2785 22.9079 13.1636 23.2033H17.1639C17.0214 22.9016 16.8293 22.5213 16.5951 22.1387C16.3468 21.7329 16.0556 21.3354 15.767 21.0626C15.4783 20.7899 15.2138 20.6648 15.0145 20.6717ZM20.2645 20.6717C20.0843 20.6779 19.847 20.809 19.5942 21.0835C19.3414 21.3579 19.0928 21.7515 18.8852 22.1504C18.6871 22.531 18.5285 22.9079 18.4136 23.2033H22.4139C22.2714 22.9016 22.0793 22.5213 21.8451 22.1387C21.5968 21.7329 21.3056 21.3354 21.017 21.0626C20.7283 20.7899 20.4638 20.6648 20.2645 20.6717Z" fill="#002B7F"/>
</svg>
