<svg width="25" height="24" viewBox="0 0 25 24" fill="none" xmlns="http://www.w3.org/2000/svg">
<path d="M24.0257 12.0001C24.0257 18.0607 19.5345 23.0711 13.7001 23.8842C13.1546 23.9599 12.5965 23.9994 12.0299 23.9994C11.376 23.9994 10.7338 23.9473 10.1084 23.8464C4.39673 22.9265 0.0341797 17.9724 0.0341797 12.0001C0.0341797 5.37281 5.40541 0 12.0308 0C18.6561 0 24.0274 5.37281 24.0274 12.0001H24.0257Z" fill="white"/>
<path d="M4.8997 5.29297L10.4323 12.6921L4.86523 18.7082H6.11852L10.993 13.4413L14.931 18.7082H19.1952L13.3516 10.8928L18.5337 5.29297H17.2804L12.7918 10.1436L9.16474 5.29297H4.90053H4.8997ZM6.74222 6.21618H8.70075L17.351 17.785H15.3925L6.74222 6.21618Z" fill="#000754"/>
</svg>
